<svg xmlns="http://www.w3.org/2000/svg" width="208" height="151" fill="none"><g clip-path="url(#a)"><path fill="#2BDD96" d="M105.689 113.09c0 1.47-.27 2.85-.82 4.12-.55 1.28-1.3 2.4-2.26 3.36-.96.96-2.08 1.71-3.35 2.25s-2.64.81-4.1.81c-1.46 0-2.82-.27-4.08-.81-1.26-.54-2.38-1.29-3.34-2.24-.96-.95-1.71-2.06-2.25-3.33s-.8-2.64-.8-4.11c0-1.47.27-2.84.8-4.11.53-1.27 1.28-2.38 2.25-3.34.96-.96 2.08-1.71 3.35-2.25s2.64-.81 4.1-.81a10.415 10.415 0 0 1 7.44 3.05c.95.95 1.7 2.06 2.25 3.33.54 1.27.82 2.63.82 4.08"/><path fill="#2A2A2A" d="M115.199 121.66a21.334 21.334 0 0 1-4.64 6.91c-2.01 2.01-4.29 3.54-6.97 4.67-2.63 1.12-5.4 1.66-8.47 1.66-3.07 0-5.85-.54-8.48-1.66-2.67-1.13-4.94-2.65-6.92-4.63-1.99-1.99-3.52-4.25-4.66-6.92-1.12-2.61-1.66-5.35-1.66-8.39 0-3.04.55-5.9 1.67-8.54 1.15-2.69 2.68-4.97 4.7-6.99 2.01-2.01 4.29-3.54 6.96-4.67 2.63-1.11 5.4-1.66 8.47-1.66 3.07 0 5.82.54 8.42 1.65 2.67 1.14 4.94 2.66 6.97 4.66 1.99 1.97 3.5 4.21 4.62 6.85 1.1 2.62 1.64 5.4 1.64 8.52 0 3.12-.54 5.9-1.64 8.52m90.01-101.73a32.271 32.271 0 0 0-7.03-10.42 33.093 33.093 0 0 0-10.35-6.94C183.879.86 179.589 0 175.079 0s-8.81.86-12.78 2.54a32.761 32.761 0 0 0-10.44 7.02c-2.99 2.98-5.35 6.49-7.04 10.44-1.7 3.99-2.56 8.32-2.56 12.85 0 4.53.87 8.79 2.57 12.77.7 1.63 1.52 3.17 2.45 4.65l-31.81 31.81a38.043 38.043 0 0 0-5.81-3.11c-4.48-1.92-9.35-2.89-14.46-2.89-5.11 0-9.98.97-14.48 2.88a36.73 36.73 0 0 0-5.28 2.76L49.39 55.67c-.17.57-.37 1.12-.6 1.67-.91 2.14-2.12 3.95-3.7 5.53-1.59 1.59-3.4 2.81-5.54 3.73-2.08.89-4.27 1.33-6.7 1.33-2.43 0-4.72-.44-6.82-1.33-2.15-.92-3.98-2.15-5.59-3.76-1.61-1.61-2.83-3.43-3.74-5.57-.89-2.09-1.32-4.31-1.32-6.78 0-2.47.43-4.65 1.32-6.72.91-2.14 2.13-3.96 3.74-5.58 1.57-1.59 3.36-2.79 5.47-3.68 2.08-.88 4.31-1.31 6.81-1.31s4.73.43 6.82 1.31c2.12.89 3.93 2.11 5.53 3.71.51.51 19.6 19.81 19.6 19.81.55-2.41.83-4.9.83-7.46 0-4.5-.86-8.81-2.54-12.78a32.761 32.761 0 0 0-7.02-10.44c-2.99-2.99-6.5-5.35-10.42-7-3.96-1.67-8.26-2.52-12.79-2.52-4.53 0-8.84.85-12.79 2.52a32.271 32.271 0 0 0-10.42 7.03 33.093 33.093 0 0 0-6.94 10.35C.89 41.69.03 45.98.03 50.49s.86 8.81 2.54 12.78c1.67 3.94 4.03 7.45 7.02 10.44 2.98 2.99 6.49 5.35 10.44 7.04 3.99 1.7 8.32 2.56 12.85 2.56 4.53 0 8.79-.87 12.77-2.57 1.63-.7 3.18-1.52 4.65-2.45L64.41 92.4a38.092 38.092 0 0 0-3.45 6.35c-1.93 4.52-2.9 9.42-2.9 14.56 0 5.14.98 9.96 2.91 14.46a37.31 37.31 0 0 0 7.92 11.73c3.36 3.36 7.33 6.02 11.78 7.91 4.5 1.91 9.37 2.88 14.48 2.88 5.11 0 9.98-.97 14.48-2.88 4.46-1.89 8.44-4.57 11.83-7.95 3.39-3.39 6.06-7.36 7.94-11.81 1.89-4.48 2.85-9.36 2.85-14.5 0-5.14-.96-10.02-2.85-14.5-.85-2-1.86-3.9-3.02-5.7l43.55-43.55c-.57-.17-1.12-.37-1.67-.6-2.14-.91-3.95-2.12-5.53-3.7-1.59-1.59-2.81-3.4-3.73-5.54-.89-2.08-1.33-4.27-1.33-6.7 0-2.43.44-4.72 1.33-6.82.92-2.15 2.15-3.98 3.76-5.59 1.61-1.61 3.43-2.83 5.57-3.74 2.09-.89 4.31-1.32 6.77-1.32s4.65.43 6.72 1.31c2.14.91 3.96 2.14 5.58 3.74 1.59 1.57 2.79 3.36 3.68 5.47.88 2.09 1.31 4.32 1.31 6.81 0 2.49-.43 4.73-1.31 6.82-.89 2.12-2.11 3.93-3.71 5.53-.51.51-19.8 19.6-19.8 19.6 2.4.55 4.9.83 7.46.83 4.5 0 8.81-.86 12.78-2.54a32.703 32.703 0 0 0 17.45-17.44c1.67-3.96 2.52-8.26 2.52-12.79 0-4.53-.85-8.84-2.52-12.79"/></g><defs><clipPath id="a"><path fill="#fff" d="M0 0h207.74v150.27H0z"/></clipPath></defs></svg>