<svg xmlns="http://www.w3.org/2000/svg" viewBox="0 0 256 256">
  <rect width="256" height="256" rx="40" fill="#FFFFFF"/>
  <g transform="translate(24, 53) scale(0.9926)">
    <path d="M105.689 113.09C105.689 114.56 105.419 115.94 104.869 117.21C104.319 118.49 103.569 119.61 102.609 120.57C101.649 121.53 100.529 122.28 99.2595 122.82C97.9895 123.36 96.6195 123.63 95.1595 123.63C93.6995 123.63 92.3395 123.36 91.0795 122.82C89.8195 122.28 88.6994 121.53 87.7394 120.58C86.7794 119.63 86.0294 118.52 85.4894 117.25C84.9494 115.98 84.6895 114.61 84.6895 113.14C84.6895 111.67 84.9594 110.3 85.4894 109.03C86.0194 107.76 86.7694 106.65 87.7394 105.69C88.6994 104.73 89.8194 103.98 91.0894 103.44C92.3594 102.9 93.7295 102.63 95.1895 102.63C96.6495 102.63 98.0095 102.9 99.2895 103.44C100.559 103.98 101.679 104.73 102.629 105.68C103.579 106.63 104.329 107.74 104.879 109.01C105.419 110.28 105.699 111.64 105.699 113.09" fill="#2BDD96"/>
    <path d="M115.199 121.66C114.079 124.31 112.559 126.57 110.559 128.57C108.549 130.58 106.269 132.11 103.589 133.24C100.959 134.36 98.1893 134.9 95.1193 134.9C92.0493 134.9 89.2693 134.36 86.6393 133.24C83.9693 132.11 81.6993 130.59 79.7193 128.61C77.7293 126.62 76.1993 124.36 75.0593 121.69C73.9393 119.08 73.3993 116.34 73.3993 113.3C73.3993 110.26 73.9493 107.4 75.0693 104.76C76.2193 102.07 77.7493 99.79 79.7693 97.77C81.7793 95.76 84.0593 94.23 86.7293 93.1C89.3593 91.99 92.1293 91.44 95.1993 91.44C98.2693 91.44 101.019 91.98 103.619 93.09C106.289 94.23 108.559 95.75 110.589 97.75C112.579 99.72 114.089 101.96 115.209 104.6C116.309 107.22 116.849 110 116.849 113.12C116.849 116.24 116.309 119.02 115.209 121.64M205.219 19.91C203.559 15.97 201.189 12.47 198.189 9.49C195.209 6.54 191.729 4.21 187.839 2.55C183.879 0.86 179.589 0 175.079 0C170.569 0 166.269 0.86 162.299 2.54C158.359 4.21 154.849 6.57 151.859 9.56C148.869 12.54 146.509 16.05 144.819 20C143.119 23.99 142.259 28.32 142.259 32.85C142.259 37.38 143.129 41.64 144.829 45.62C145.529 47.25 146.349 48.79 147.279 50.27L115.469 82.08C113.639 80.89 111.699 79.84 109.659 78.97C105.179 77.05 100.309 76.08 95.1993 76.08C90.0893 76.08 85.2193 77.05 80.7193 78.96C78.8693 79.74 77.1093 80.67 75.4393 81.72L49.3893 55.67C49.2193 56.24 49.0193 56.79 48.7893 57.34C47.8793 59.48 46.6693 61.29 45.0893 62.87C43.4993 64.46 41.6893 65.68 39.5493 66.6C37.4693 67.49 35.2793 67.93 32.8493 67.93C30.4193 67.93 28.1293 67.49 26.0293 66.6C23.8793 65.68 22.0493 64.45 20.4393 62.84C18.8293 61.23 17.6093 59.41 16.6993 57.27C15.8093 55.18 15.3793 52.96 15.3793 50.49C15.3793 48.02 15.8093 45.84 16.6993 43.77C17.6093 41.63 18.8293 39.81 20.4393 38.19C22.0093 36.6 23.7993 35.4 25.9093 34.51C27.9893 33.63 30.2193 33.2 32.7193 33.2C35.2193 33.2 37.4493 33.63 39.5393 34.51C41.6593 35.4 43.4693 36.62 45.0693 38.22C45.5793 38.73 64.6693 58.03 64.6693 58.03C65.2193 55.62 65.4993 53.13 65.4993 50.57C65.4993 46.07 64.6393 41.76 62.9593 37.79C61.2893 33.85 58.9293 30.34 55.9393 27.35C52.9493 24.36 49.4393 22 45.5193 20.35C41.5593 18.68 37.2593 17.83 32.7293 17.83C28.1993 17.83 23.8893 18.68 19.9393 20.35C15.9993 22.01 12.4993 24.38 9.5193 27.38C6.5693 30.36 4.2393 33.84 2.5793 37.73C0.889297 41.69 0.0292969 45.98 0.0292969 50.49C0.0292969 55 0.889297 59.3 2.5693 63.27C4.2393 67.21 6.5993 70.72 9.5893 73.71C12.5693 76.7 16.0793 79.06 20.0293 80.75C24.0193 82.45 28.3493 83.31 32.8793 83.31C37.4093 83.31 41.6693 82.44 45.6493 80.74C47.2793 80.04 48.8293 79.22 50.2993 78.29L64.4093 92.4C63.0693 94.38 61.9193 96.51 60.9593 98.75C59.0293 103.27 58.0593 108.17 58.0593 113.31C58.0593 118.45 59.0393 123.27 60.9693 127.77C62.8693 132.2 65.5393 136.15 68.8893 139.5C72.2493 142.86 76.2193 145.52 80.6693 147.41C85.1693 149.32 90.0393 150.29 95.1493 150.29C100.259 150.29 105.129 149.32 109.629 147.41C114.089 145.52 118.069 142.84 121.459 139.46C124.849 136.07 127.519 132.1 129.399 127.65C131.289 123.17 132.249 118.29 132.249 113.15C132.249 108.01 131.289 103.13 129.399 98.65C128.549 96.65 127.539 94.75 126.379 92.95L169.929 49.4C169.359 49.23 168.809 49.03 168.259 48.8C166.119 47.89 164.309 46.68 162.729 45.1C161.139 43.51 159.919 41.7 158.999 39.56C158.109 37.48 157.669 35.29 157.669 32.86C157.669 30.43 158.109 28.14 158.999 26.04C159.919 23.89 161.149 22.06 162.759 20.45C164.369 18.84 166.189 17.62 168.329 16.71C170.419 15.82 172.639 15.39 175.099 15.39C177.559 15.39 179.749 15.82 181.819 16.7C183.959 17.61 185.779 18.84 187.399 20.44C188.989 22.01 190.189 23.8 191.079 25.91C191.959 28 192.389 30.23 192.389 32.72C192.389 35.21 191.959 37.45 191.079 39.54C190.189 41.66 188.969 43.47 187.369 45.07C186.859 45.58 167.569 64.67 167.569 64.67C169.969 65.22 172.469 65.5 175.029 65.5C179.529 65.5 183.839 64.64 187.809 62.96C191.749 61.29 195.259 58.93 198.249 55.94C201.239 52.95 203.599 49.44 205.259 45.52C206.929 41.56 207.779 37.26 207.779 32.73C207.779 28.2 206.929 23.89 205.259 19.94" fill="#2A2A2A"/>
  </g>
</svg>
