<svg display="block" role="presentation" viewBox="0 0 48 45" xmlns="http://www.w3.org/2000/svg"><path d="M 11.063 4.568 C 10.148 4.568 9.323 4.728 8.543 5.061 C 6.977 5.718 5.731 6.963 5.073 8.528 C 4.737 9.311 4.577 10.143 4.577 11.065 C 4.577 11.989 4.741 12.788 5.073 13.562 C 5.398 14.331 5.869 15.029 6.459 15.619 C 7.05 16.21 7.723 16.658 8.516 16.997 C 9.3 17.329 10.125 17.489 11.039 17.489 C 11.954 17.489 12.778 17.329 13.559 16.997 C 14.333 16.672 15.037 16.2 15.631 15.607 C 16.222 15.019 16.691 14.32 17.011 13.55 C 17.34 12.77 17.501 11.941 17.501 11.015 C 17.501 10.089 17.34 9.261 17.011 8.48 C 16.693 7.716 16.226 7.023 15.637 6.442 C 15.041 5.851 14.338 5.379 13.565 5.052 C 12.793 4.723 11.974 4.562 11.06 4.562 M 11.036 22.066 C 9.516 22.066 8.068 21.778 6.729 21.208 C 5.42 20.658 4.229 19.86 3.223 18.857 C 2.223 17.855 1.423 16.672 0.867 15.37 C 0.291 14.031 0 12.586 0 11.069 C 0 9.552 0.291 8.083 0.864 6.738 C 1.987 4.085 4.1 1.975 6.753 0.855 C 8.088 0.288 9.54 0 11.06 0 C 12.579 0 14.028 0.288 15.361 0.861 C 16.662 1.414 17.847 2.208 18.852 3.203 C 19.864 4.205 20.669 5.397 21.22 6.711 C 21.785 8.044 22.069 9.495 22.069 11.024 C 22.069 12.553 21.784 14.004 21.22 15.337 C 20.669 16.649 19.868 17.842 18.861 18.848 C 17.852 19.856 16.657 20.66 15.343 21.214 C 14.005 21.781 12.556 22.069 11.037 22.069" fill="rgb(42, 42, 42)" height="22.06927058823537px" id="ytaXCl5sn" transform="translate(0 22.026)" width="22.069270588235305px"/><path d="M 6.229 3.105 C 6.234 3.525 6.151 3.941 5.987 4.327 C 5.671 5.079 5.073 5.676 4.322 5.992 C 3.937 6.154 3.522 6.236 3.104 6.233 C 2.688 6.237 2.276 6.155 1.893 5.993 C 1.524 5.836 1.187 5.61 0.902 5.328 C 0.617 5.046 0.391 4.71 0.237 4.34 C 0.076 3.954 -0.004 3.539 0 3.12 C 0 2.684 0.08 2.277 0.237 1.9 C 0.391 1.528 0.618 1.191 0.905 0.909 C 1.19 0.624 1.528 0.397 1.899 0.241 C 2.284 0.079 2.698 -0.003 3.116 0 C 3.944 -0.006 4.739 0.32 5.324 0.905 C 5.607 1.188 5.829 1.517 5.992 1.894 C 6.155 2.276 6.238 2.689 6.235 3.105" fill="rgb(43, 221, 150)" height="6.233417922657232px" id="Cu5oTZ7Gv" transform="translate(7.924 29.877)" width="6.2351636658557865px"/><path d="M 11.063 4.568 C 10.148 4.568 9.323 4.728 8.543 5.061 C 6.977 5.718 5.731 6.963 5.073 8.528 C 4.737 9.311 4.577 10.143 4.577 11.065 C 4.577 11.989 4.741 12.788 5.073 13.562 C 5.398 14.331 5.869 15.029 6.459 15.619 C 7.05 16.21 7.723 16.658 8.516 16.997 C 9.3 17.329 10.125 17.489 11.039 17.489 C 11.954 17.489 12.778 17.329 13.559 16.997 C 14.333 16.672 15.037 16.2 15.631 15.607 C 16.222 15.019 16.691 14.32 17.011 13.55 C 17.34 12.77 17.501 11.941 17.501 11.015 C 17.501 10.089 17.34 9.261 17.011 8.48 C 16.693 7.716 16.226 7.023 15.637 6.442 C 15.041 5.851 14.338 5.379 13.565 5.052 C 12.793 4.723 11.974 4.562 11.06 4.562 M 11.036 22.066 C 9.516 22.066 8.068 21.778 6.729 21.208 C 5.42 20.658 4.229 19.86 3.223 18.857 C 2.223 17.855 1.423 16.672 0.867 15.37 C 0.291 14.031 0 12.586 0 11.069 C 0 9.552 0.291 8.083 0.864 6.738 C 1.987 4.085 4.1 1.975 6.753 0.854 C 8.088 0.288 9.54 0 11.06 0 C 12.579 0 14.028 0.288 15.361 0.861 C 16.662 1.413 17.847 2.208 18.852 3.203 C 19.864 4.205 20.669 5.397 21.22 6.711 C 21.784 8.044 22.069 9.495 22.069 11.024 C 22.069 12.553 21.784 14.004 21.22 15.337 C 20.669 16.65 19.868 17.842 18.861 18.848 C 17.851 19.856 16.657 20.66 15.342 21.214 C 14.004 21.781 12.556 22.069 11.036 22.069" fill="rgb(42, 42, 42)" height="22.06927058823537px" id="gbr5Pj8FS" transform="translate(25.93 22.026)" width="22.069270588235305px"/><path d="M 6.229 3.105 C 6.234 3.525 6.151 3.941 5.987 4.327 C 5.671 5.08 5.073 5.678 4.321 5.993 C 3.936 6.155 3.522 6.236 3.104 6.233 C 2.688 6.237 2.276 6.155 1.893 5.993 C 1.524 5.836 1.187 5.61 0.902 5.328 C 0.617 5.046 0.391 4.71 0.237 4.34 C 0.076 3.954 -0.004 3.539 0 3.12 C 0 2.684 0.08 2.277 0.237 1.9 C 0.391 1.528 0.618 1.191 0.905 0.909 C 1.19 0.624 1.528 0.397 1.899 0.241 C 2.284 0.079 2.698 -0.003 3.116 0 C 3.944 -0.006 4.739 0.32 5.324 0.905 C 5.607 1.188 5.829 1.517 5.992 1.894 C 6.153 2.268 6.235 2.672 6.235 3.105" fill="rgb(43, 221, 150)" height="6.233417922657232px" id="P5NYUDHef" transform="translate(33.854 29.877)" width="6.235099082463723px"/><path d="M 11.063 4.568 C 10.148 4.568 9.323 4.728 8.543 5.061 C 6.977 5.718 5.731 6.963 5.073 8.528 C 4.737 9.311 4.577 10.143 4.577 11.066 C 4.577 11.989 4.741 12.787 5.073 13.562 C 5.398 14.331 5.869 15.029 6.459 15.619 C 7.05 16.21 7.723 16.658 8.516 16.997 C 9.3 17.329 10.125 17.489 11.039 17.489 C 11.954 17.489 12.778 17.329 13.559 16.997 C 14.333 16.672 15.037 16.2 15.631 15.607 C 16.222 15.019 16.691 14.32 17.011 13.55 C 17.34 12.77 17.501 11.941 17.501 11.015 C 17.501 10.089 17.34 9.261 17.011 8.48 C 16.693 7.716 16.226 7.023 15.637 6.442 C 15.041 5.851 14.338 5.379 13.565 5.052 C 12.793 4.723 11.974 4.562 11.06 4.562 M 11.036 22.066 C 9.516 22.066 8.068 21.778 6.729 21.208 C 5.42 20.658 4.229 19.86 3.223 18.857 C 2.223 17.855 1.423 16.672 0.867 15.37 C 0.291 14.031 0 12.586 0 11.069 C 0 9.552 0.291 8.083 0.864 6.738 C 1.987 4.086 4.099 1.976 6.752 0.856 C 8.089 0.288 9.54 0 11.06 0 C 12.579 0 14.028 0.288 15.361 0.861 C 16.662 1.414 17.847 2.208 18.852 3.203 C 19.864 4.205 20.669 5.397 21.22 6.711 C 21.785 8.044 22.069 9.495 22.069 11.024 C 22.069 12.553 21.784 14.004 21.22 15.337 C 20.669 16.65 19.868 17.843 18.861 18.849 C 17.851 19.856 16.657 20.66 15.342 21.214 C 14.004 21.781 12.556 22.069 11.036 22.069" fill="rgb(42, 42, 42)" height="22.06927058823537px" id="bi0CmKVGG" transform="translate(12.988 0.001)" width="22.0692705882353px"/><path d="M 6.229 3.105 C 6.234 3.525 6.151 3.941 5.987 4.327 C 5.671 5.079 5.073 5.677 4.322 5.993 C 3.937 6.155 3.522 6.237 3.104 6.233 C 2.688 6.237 2.276 6.155 1.893 5.993 C 1.524 5.836 1.187 5.61 0.902 5.328 C 0.617 5.046 0.391 4.71 0.237 4.34 C 0.076 3.954 -0.004 3.539 0 3.12 C 0 2.684 0.08 2.277 0.237 1.9 C 0.391 1.529 0.618 1.191 0.905 0.909 C 1.19 0.624 1.528 0.397 1.899 0.241 C 2.284 0.079 2.698 -0.003 3.116 0 C 3.944 -0.006 4.739 0.32 5.324 0.905 C 5.607 1.188 5.829 1.517 5.992 1.894 C 6.153 2.268 6.235 2.672 6.235 3.105" fill="rgb(43, 221, 150)" height="6.233417922657231px" id="PsF6iUqFH" transform="translate(20.912 7.852)" width="6.235099082463741px"/></svg>