<svg xmlns="http://www.w3.org/2000/svg" viewBox="0 0 86 85"><path d="M78.918 11.85a5.08 5.08 0 0 1-.405 2.033 5.185 5.185 0 0 1-2.769 2.769c-.626.266-1.303.4-2.023.4a5.07 5.07 0 0 1-2.014-.4 5.289 5.289 0 0 1-1.648-1.106 5 5 0 0 1-1.106-1.643 5.127 5.127 0 0 1-.394-2.029c0-.725.133-1.401.394-2.028a5.007 5.007 0 0 1 1.11-1.648 5.185 5.185 0 0 1 1.654-1.11 5.123 5.123 0 0 1 2.024-.4 5.14 5.14 0 0 1 3.671 1.505 5.253 5.253 0 0 1 1.11 1.643c.267.627.405 1.298.405 2.014" fill="#2BDD96"></path><path d="M60.62 11.667 48.954 0v7.867h-24.04v7.6h24.04v7.872L60.62 11.667Z" fill="#2A2A2A"></path><path d="M7.082 73.15c0-.725.134-1.406.405-2.033a5.185 5.185 0 0 1 2.769-2.769 5.122 5.122 0 0 1 2.023-.4c.72 0 1.392.134 2.014.4a5.289 5.289 0 0 1 1.648 1.106 5 5 0 0 1 1.106 1.643c.266.627.394 1.303.394 2.029 0 .725-.133 1.401-.394 2.028a5.007 5.007 0 0 1-1.11 1.648 5.184 5.184 0 0 1-1.654 1.11c-.627.267-1.303.4-2.024.4a5.14 5.14 0 0 1-3.671-1.505 5.252 5.252 0 0 1-1.11-1.643 5.095 5.095 0 0 1-.405-2.014" fill="#2BDD96"></path><path d="M25.38 73.333 37.047 85v-7.867h24.039v-7.6h-24.04v-7.872L25.38 73.333Z" fill="#2A2A2A"></path><path d="M12.35 6.542a5.08 5.08 0 0 1 2.033.405 5.185 5.185 0 0 1 2.769 2.769c.266.627.4 1.303.4 2.023a5.07 5.07 0 0 1-.4 2.014 5.287 5.287 0 0 1-1.106 1.648 4.998 4.998 0 0 1-1.643 1.106 5.127 5.127 0 0 1-2.029.394 5.215 5.215 0 0 1-2.028-.394 5.008 5.008 0 0 1-1.648-1.11 5.185 5.185 0 0 1-1.11-1.654 5.123 5.123 0 0 1-.4-2.024 5.14 5.14 0 0 1 1.505-3.671 5.25 5.25 0 0 1 1.643-1.11 5.095 5.095 0 0 1 2.014-.406" fill="#2BDD96"></path><path d="M12.167 24.88.5 36.546h7.867v24.04h7.6v-24.04h7.872L12.167 24.88Z" fill="#2A2A2A"></path><path d="M73.65 78.458a5.07 5.07 0 0 1-2.033-.405 5.167 5.167 0 0 1-2.769-2.769 5.123 5.123 0 0 1-.4-2.023c0-.72.134-1.392.4-2.014a5.287 5.287 0 0 1 1.106-1.648 4.998 4.998 0 0 1 1.643-1.106 5.127 5.127 0 0 1 2.029-.394c.725 0 1.401.133 2.028.394a5.009 5.009 0 0 1 1.648 1.11 5.185 5.185 0 0 1 1.11 1.654c.267.627.4 1.303.4 2.024a5.14 5.14 0 0 1-1.505 3.671 5.25 5.25 0 0 1-1.643 1.11 5.095 5.095 0 0 1-2.014.406" fill="#2BDD96"></path><path d="M73.833 60.12 85.5 48.454h-7.867v-24.04h-7.6v24.04h-7.872L73.833 60.12Z" fill="#2A2A2A"></path></svg>