<svg xmlns="http://www.w3.org/2000/svg" viewBox="0 0 85 86"><path d="M85 18.97H0v7.391h85V18.97Zm0 40.652H0v7.391h85v-7.39Z" fill="#2A2A2A"></path><path d="M25.868.491h-7.391v85h7.39v-85Zm40.652 0h-7.39v85h7.391v-85Z" fill="#2A2A2A"></path><path d="M47.11 43.434c0 .712-.13 1.38-.396 1.994A5.08 5.08 0 0 1 44 48.143a5.02 5.02 0 0 1-1.983.392c-.707 0-1.364-.13-1.974-.392a5.182 5.182 0 0 1-1.615-1.084 4.903 4.903 0 0 1-1.084-1.611 5.03 5.03 0 0 1-.387-1.99c0-.711.13-1.374.387-1.989a4.912 4.912 0 0 1 1.088-1.616 5.081 5.081 0 0 1 1.62-1.089 5.017 5.017 0 0 1 1.984-.392 5.035 5.035 0 0 1 3.599 1.476c.46.46.822.997 1.088 1.612a4.95 4.95 0 0 1 .397 1.974" fill="#2BDD96"></path></svg>