<svg xmlns="http://www.w3.org/2000/svg" viewBox="0 0 68 96"><path d="M.514 62.582c0-4.61.867-8.993 2.586-13.035 1.703-4.015 4.1-7.59 7.117-10.611l5.723 5.723c-2.28 2.281-4.094 4.993-5.392 8.052-1.288 3.038-1.945 6.36-1.945 9.87 0 3.512.652 6.834 1.94 9.871a25.386 25.386 0 0 0 5.434 8.095 25.164 25.164 0 0 0 8.052 5.408c3.022 1.277 6.36 1.929 9.907 1.929 3.548 0 6.886-.647 9.908-1.924a24.776 24.776 0 0 0 8-5.392 25.9 25.9 0 0 0 5.408-8.073c1.287-3.007 1.94-6.313 1.94-9.824 0-3.51-.653-6.838-1.946-9.87a25.386 25.386 0 0 0-5.434-8.094l5.724-5.724a33.391 33.391 0 0 1 7.163 10.659c1.714 4.036 2.586 8.42 2.586 13.03 0 4.609-.872 8.987-2.591 13.002a33.832 33.832 0 0 1-7.1 10.586 32.727 32.727 0 0 1-10.607 7.158c-4.02 1.698-8.415 2.565-13.056 2.565-4.64 0-9.035-.862-13.055-2.565a33.189 33.189 0 0 1-10.633-7.143 33.41 33.41 0 0 1-7.159-10.653C1.371 71.58.498 67.197.498 62.592" fill="#2A2A2A"></path><path d="M34.07 51.045 46.5 38.62h-8.383V10.501h-8.094v28.12h-8.378L34.07 51.044Z" fill="#2BDD96"></path><path d="M33.93 0 21.5 12.425h24.855L33.93 0Zm.002 68.179a5.4 5.4 0 0 1-2.165-.431 5.522 5.522 0 0 1-2.949-2.949 5.456 5.456 0 0 1-.426-2.154c0-.768.142-1.483.426-2.145a5.633 5.633 0 0 1 1.177-1.755 5.421 5.421 0 0 1 1.75-1.183 5.553 5.553 0 0 1 2.16-.42c.773 0 1.493.141 2.16.42a5.33 5.33 0 0 1 1.756 1.183 5.525 5.525 0 0 1 1.183 1.76c.284.668.426 1.388.426 2.155a5.474 5.474 0 0 1-1.603 3.91c-.5.5-1.083.894-1.75 1.183a5.427 5.427 0 0 1-2.145.431" fill="#2BDD96"></path></svg>