<svg xmlns="http://www.w3.org/2000/svg" viewBox="0 0 313 306" width="313" height="306" fill="none" id="svg483881563_1830"><path d="M143.331 38.62c7.823-4.516 10.505-14.52 5.987-22.344-4.517-7.825-14.521-10.503-22.344-5.987-7.822 4.516-10.503 14.522-5.987 22.344 4.516 7.822 14.522 10.503 22.344 5.987Z" fill="#2BDD96"></path><path d="M103.239 63.568 14.555 152.31 0 137.747l88.684-88.744 14.555 14.565Z" fill="#2A2A2A"></path><path d="m41.04 39.11 68.212 2.443.7.746 1.664 1.788.684.747-2.317 68.212-17.232 16.065 3.033-71.929-71.975-2.006L41.04 39.111Z" fill="#2A2A2A"></path><path d="m260.735 63.568-88.684 88.743-14.555-14.564 88.684-88.744 14.555 14.565Z" fill="#2BDD96"></path><path d="m198.536 39.11 68.212 2.443.7.746 1.664 1.788.684.747-2.317 68.212-17.232 16.065 3.033-71.929-71.975-2.006 17.231-16.065Z" fill="#2BDD96"></path><path d="M298.827 36.62c7.823-4.516 10.505-14.52 5.987-22.344-4.517-7.825-14.521-10.503-22.344-5.987-7.822 4.516-10.503 14.522-5.987 22.344 4.516 7.822 14.522 10.503 22.344 5.987Z" fill="#2A2A2A"></path><path d="m103.735 215.568-88.684 88.743L.496 289.747l88.684-88.744 14.555 14.565Z" fill="#2BDD96"></path><path d="m41.536 191.111 68.212 2.442.7.746 1.664 1.789.684.746-2.317 68.212-17.232 16.065 3.033-71.929-71.975-2.006 17.231-16.065Z" fill="#2BDD96"></path><path d="M141.827 188.62c7.823-4.516 10.505-14.519 5.987-22.344-4.517-7.825-14.521-10.503-22.344-5.987-7.822 4.516-10.503 14.521-5.987 22.344 4.516 7.822 14.522 10.503 22.344 5.987Zm119.912 27.838-88.684 88.744-14.555-14.565 88.684-88.744 14.555 14.565Z" fill="#2A2A2A"></path><path d="m199.54 192.001 68.212 2.442.7.746 1.664 1.789.684.746-2.317 68.212-17.232 16.065 3.033-71.928-71.975-2.007 17.231-16.065Z" fill="#2A2A2A"></path><path d="M297.831 188.51c7.823-4.517 10.505-14.52 5.987-22.344-4.517-7.825-14.521-10.504-22.344-5.988-7.822 4.517-10.503 14.522-5.987 22.345 4.516 7.822 14.522 10.503 22.344 5.987Z" fill="#2BDD96"></path></svg>
