<svg width="722" height="152" viewBox="0 0 722 152" fill="none" xmlns="http://www.w3.org/2000/svg">
<g clip-path="url(#clip0_304_42)">
<path d="M444.17 44.7998V116.92L388.92 44.7998H376.98V149.32H394.15V77.1898L449.4 149.32H461.34V44.7998H444.17Z" fill="#2A2A2A"/>
<path d="M516.289 44.7998L473.289 149.32H491.509L502.519 121.7H541.519L552.429 149.32H570.939L528.239 44.7998H516.289ZM522.099 72.5598L535.609 106.76H508.459L522.099 72.5598Z" fill="#2A2A2A"/>
<path d="M600.359 44.7998H583.189V149.32H600.359V44.7998Z" fill="#2A2A2A"/>
<path d="M716.501 76.0798C713.761 69.5598 709.951 63.8398 705.081 58.9098C700.201 53.9798 694.561 50.1498 688.131 47.4098C681.711 44.6698 674.771 43.2998 667.301 43.2998C659.831 43.2998 652.891 44.6698 646.471 47.4098C640.051 50.1498 634.421 53.9798 629.601 58.9098C624.771 63.8398 620.991 69.5398 618.251 76.0098C615.511 82.4798 614.141 89.4498 614.141 96.9098C614.141 104.37 615.511 111.37 618.251 117.89C620.981 124.41 624.791 130.13 629.671 135.06C634.541 139.99 640.221 143.85 646.691 146.63C653.161 149.41 660.131 150.81 667.591 150.81C675.051 150.81 681.851 149.41 688.271 146.63C694.691 143.85 700.311 140.01 705.141 135.13C709.971 130.25 713.751 124.55 716.491 118.03C719.231 111.51 720.601 104.52 720.601 97.0598C720.601 89.5998 719.231 82.5998 716.491 76.0798M698.431 116.39C695.391 122.01 691.211 126.42 685.891 129.6C680.561 132.79 674.371 134.38 667.301 134.38C662.121 134.38 657.341 133.46 652.971 131.62C648.581 129.77 644.831 127.21 641.691 123.93C638.551 120.65 636.121 116.69 634.371 112.06C632.631 107.43 631.761 102.38 631.761 96.9098C631.761 89.5498 633.271 83.0798 636.311 77.4998C639.351 71.9298 643.531 67.5698 648.851 64.4298C654.181 61.2898 660.321 59.7298 667.291 59.7298C672.561 59.7298 677.371 60.6298 681.701 62.4098C686.031 64.1998 689.791 66.7698 692.971 70.0998C696.161 73.4398 698.621 77.3698 700.361 81.8998C702.101 86.4298 702.981 91.4298 702.981 96.8998C702.981 104.27 701.461 110.76 698.421 116.39" fill="#2A2A2A"/>
<path d="M259.4 44.7998H241.65V149.32H259.4V44.7998Z" fill="#2A2A2A"/>
<path d="M341.27 44.7998L296.33 92.2898V44.7998H279.16V149.32H296.33V97.4998L342.32 149.32H364.72L315.34 94.5898L363.22 44.7998H341.27Z" fill="#2A2A2A"/>
<path d="M106.291 113.87C106.291 115.34 106.021 116.72 105.471 117.99C104.921 119.27 104.171 120.39 103.211 121.35C102.251 122.31 101.131 123.06 99.861 123.6C98.591 124.14 97.221 124.41 95.761 124.41C94.301 124.41 92.941 124.14 91.681 123.6C90.421 123.06 89.301 122.31 88.341 121.36C87.381 120.41 86.631 119.3 86.091 118.03C85.551 116.76 85.291 115.39 85.291 113.92C85.291 112.45 85.561 111.08 86.091 109.81C86.621 108.54 87.371 107.43 88.341 106.47C89.301 105.51 90.421 104.76 91.691 104.22C92.961 103.68 94.331 103.41 95.791 103.41C97.251 103.41 98.611 103.68 99.891 104.22C101.161 104.76 102.281 105.51 103.231 106.46C104.181 107.41 104.931 108.52 105.481 109.79C106.021 111.06 106.301 112.42 106.301 113.87" fill="#2BDD96"/>
<path d="M115.811 122.44C114.691 125.09 113.171 127.35 111.171 129.35C109.161 131.36 106.881 132.89 104.201 134.02C101.571 135.14 98.8006 135.68 95.7306 135.68C92.6606 135.68 89.8806 135.14 87.2506 134.02C84.5806 132.89 82.3106 131.37 80.3306 129.39C78.3406 127.4 76.8106 125.14 75.6706 122.47C74.5506 119.86 74.0106 117.12 74.0106 114.08C74.0106 111.04 74.5606 108.18 75.6806 105.54C76.8306 102.85 78.3606 100.57 80.3806 98.55C82.3906 96.54 84.6706 95.01 87.3406 93.88C89.9706 92.77 92.7406 92.22 95.8106 92.22C98.8806 92.22 101.631 92.76 104.231 93.87C106.901 95.01 109.171 96.53 111.201 98.53C113.191 100.5 114.701 102.74 115.821 105.38C116.921 108 117.461 110.78 117.461 113.9C117.461 117.02 116.921 119.8 115.821 122.42M205.831 20.7C204.171 16.76 201.801 13.26 198.801 10.28C195.821 7.33004 192.341 5.00004 188.451 3.34004C184.491 1.65004 180.201 0.790039 175.691 0.790039C171.181 0.790039 166.881 1.65004 162.911 3.33004C158.971 5.00004 155.461 7.36004 152.471 10.35C149.481 13.33 147.121 16.84 145.431 20.79C143.731 24.78 142.871 29.11 142.871 33.64C142.871 38.17 143.741 42.43 145.441 46.41C146.141 48.04 146.961 49.58 147.891 51.06L116.081 82.87C114.251 81.68 112.311 80.63 110.271 79.76C105.791 77.84 100.921 76.87 95.8106 76.87C90.7006 76.87 85.8306 77.84 81.3306 79.75C79.4806 80.53 77.7206 81.46 76.0506 82.51L50.0006 56.46C49.8306 57.03 49.6306 57.58 49.4006 58.13C48.4906 60.27 47.2806 62.08 45.7006 63.66C44.1106 65.25 42.3006 66.47 40.1606 67.39C38.0806 68.28 35.8906 68.72 33.4606 68.72C31.0306 68.72 28.7406 68.28 26.6406 67.39C24.4906 66.47 22.6606 65.24 21.0506 63.63C19.4406 62.02 18.2206 60.2 17.3106 58.06C16.4206 55.97 15.9906 53.75 15.9906 51.28C15.9906 48.81 16.4206 46.63 17.3106 44.56C18.2206 42.42 19.4406 40.6 21.0506 38.98C22.6206 37.39 24.4106 36.19 26.5206 35.3C28.6006 34.42 30.8306 33.99 33.3306 33.99C35.8306 33.99 38.0606 34.42 40.1506 35.3C42.2706 36.19 44.0806 37.41 45.6806 39.01C46.1906 39.52 65.2806 58.82 65.2806 58.82C65.8306 56.41 66.1106 53.92 66.1106 51.36C66.1106 46.86 65.2506 42.55 63.5706 38.58C61.9006 34.64 59.5406 31.13 56.5506 28.14C53.5606 25.15 50.0506 22.79 46.1306 21.14C42.1706 19.47 37.8706 18.62 33.3406 18.62C28.8106 18.62 24.5006 19.47 20.5506 21.14C16.6106 22.8 13.1106 25.17 10.1306 28.17C7.18062 31.15 4.85063 34.63 3.19063 38.52C1.50063 42.48 0.640625 46.77 0.640625 51.28C0.640625 55.79 1.50063 60.09 3.18062 64.06C4.85062 68 7.21062 71.51 10.2006 74.5C13.1806 77.49 16.6906 79.85 20.6406 81.54C24.6306 83.24 28.9606 84.1 33.4906 84.1C38.0206 84.1 42.2806 83.23 46.2606 81.53C47.8906 80.83 49.4406 80.01 50.9106 79.08L65.0206 93.19C63.6806 95.17 62.5306 97.3 61.5706 99.54C59.6406 104.06 58.6706 108.96 58.6706 114.1C58.6706 119.24 59.6506 124.06 61.5806 128.56C63.4806 132.99 66.1506 136.94 69.5006 140.29C72.8606 143.65 76.8306 146.31 81.2806 148.2C85.7806 150.11 90.6506 151.08 95.7606 151.08C100.871 151.08 105.741 150.11 110.241 148.2C114.701 146.31 118.681 143.63 122.071 140.25C125.461 136.86 128.131 132.89 130.011 128.44C131.901 123.96 132.861 119.08 132.861 113.94C132.861 108.8 131.901 103.92 130.011 99.44C129.161 97.44 128.151 95.54 126.991 93.74L170.541 50.19C169.971 50.02 169.421 49.82 168.871 49.59C166.731 48.68 164.921 47.47 163.341 45.89C161.751 44.3 160.531 42.49 159.611 40.35C158.721 38.27 158.281 36.08 158.281 33.65C158.281 31.22 158.721 28.93 159.611 26.83C160.531 24.68 161.761 22.85 163.371 21.24C164.981 19.63 166.801 18.41 168.941 17.5C171.031 16.61 173.251 16.18 175.711 16.18C178.171 16.18 180.361 16.61 182.431 17.49C184.571 18.4 186.391 19.63 188.011 21.23C189.601 22.8 190.801 24.59 191.691 26.7C192.571 28.79 193.001 31.02 193.001 33.51C193.001 36 192.571 38.24 191.691 40.33C190.801 42.45 189.581 44.26 187.981 45.86C187.471 46.37 168.181 65.46 168.181 65.46C170.581 66.01 173.081 66.29 175.641 66.29C180.141 66.29 184.451 65.43 188.421 63.75C192.361 62.08 195.871 59.72 198.861 56.73C201.851 53.74 204.211 50.23 205.871 46.31C207.541 42.35 208.391 38.05 208.391 33.52C208.391 28.99 207.541 24.68 205.871 20.73" fill="#2A2A2A"/>
</g>
<defs>
<clipPath id="clip0_304_42">
<rect width="721.11" height="151.59" fill="white"/>
</clipPath>
</defs>
</svg>
