<?xml version="1.0" encoding="UTF-8" standalone="no"?>
<svg
   width="128.46001"
   height="126.93152"
   viewBox="0 0 128.46001 126.93152"
   fill="none"
   version="1.1"
   id="svg4"
   sodipodi:docname="automator.svg"
   inkscape:version="1.4.2 (ebf0e940d0, 2025-05-08)"
   xmlns:inkscape="http://www.inkscape.org/namespaces/inkscape"
   xmlns:sodipodi="http://sodipodi.sourceforge.net/DTD/sodipodi-0.dtd"
   xmlns="http://www.w3.org/2000/svg"
   xmlns:svg="http://www.w3.org/2000/svg">
  <defs
     id="defs4" />
  <sodipodi:namedview
     id="namedview4"
     pagecolor="#ffffff"
     bordercolor="#666666"
     borderopacity="1.0"
     inkscape:showpageshadow="2"
     inkscape:pageopacity="0.0"
     inkscape:pagecheckerboard="0"
     inkscape:deskcolor="#d1d1d1"
     inkscape:zoom="3.69163"
     inkscape:cx="63.928401"
     inkscape:cy="60.136038"
     inkscape:window-width="1920"
     inkscape:window-height="1018"
     inkscape:window-x="0"
     inkscape:window-y="28"
     inkscape:window-maximized="1"
     inkscape:current-layer="svg4" />
  <path
     d="m 128.45,63.831517 c 0,1.47 -0.27,2.85 -0.82,4.12 -0.54,1.28 -1.3,2.4 -2.26,3.36 -0.96,0.96 -2.08,1.71 -3.35,2.25 -1.27,0.54 -2.64,0.81 -4.1,0.81 -1.46,0 -2.82,-0.27 -4.08,-0.81 -1.26,-0.54 -2.38,-1.29 -3.34,-2.24 -0.96,-0.95 -1.71,-2.06 -2.25,-3.33 -0.53,-1.27 -0.8,-2.64 -0.8,-4.11 0,-1.47 0.27,-2.84 0.8,-4.11 0.53,-1.27 1.28,-2.38 2.25,-3.34 0.96,-0.96 2.08,-1.71 3.35,-2.25 1.27,-0.54 2.64,-0.81 4.1,-0.81 1.46,0 2.82,0.27 4.1,0.81 1.27,0.54 2.39,1.29 3.34,2.24 0.95,0.95 1.7,2.06 2.25,3.33 0.54,1.27 0.82,2.63 0.82,4.08"
     fill="#2bdd96"
     id="path1" />
  <path
     d="m 108.23,45.531517 c -2.41,-5.77 -5.87,-11.01 -10.3,-15.56 -4.37,-4.51 -9.74,-8.11 -15.96,-10.71 -6.23,-2.61 -12.59,-3.9 -18.92,-3.87 -6.39,0.03 -12.56,1.25 -18.36,3.63 -5.8,2.38 -11.07,5.85 -15.67,10.32 -4.56,4.44 -8.2,9.87 -10.83,16.15 l -14.21,-5.94 c 3.43,-8.2 8.24,-15.35 14.29,-21.24 6.02,-5.86 12.94,-10.4099997 20.57,-13.5299997 7.64,-3.13 15.75,-4.73999997 24.12,-4.77999997 8.39,-0.06 16.79,1.65999997 24.94,5.05999997 8.15,3.41 15.23,8.1799997 21.06,14.1899997 5.78,5.95 10.31,12.8 13.46,20.37 l -14.21,5.92 z"
     fill="#2a2a2a"
     id="path2" />
  <path
     d="m 62.94,126.93152 c -8.29,0 -16.57,-1.7 -24.6,-5.06 -8.15,-3.41 -15.23,-8.18 -21.06,-14.19 C 11.5,101.74152 6.97,94.881517 3.82,87.311517 l 14.22,-5.92 c 2.4,5.77 5.87,11.01 10.29,15.56 4.37,4.510003 9.74,8.110003 15.96,10.710003 6.23,2.6 12.59,3.91 18.92,3.87 6.38,-0.03 12.56,-1.25 18.36,-3.63 5.8,-2.38 11.07,-5.85 15.67,-10.320003 4.56,-4.44 8.2,-9.87 10.83,-16.15 l 14.21,5.94 c -3.43,8.2 -8.24,15.350003 -14.29,21.240003 -6.02,5.86 -12.94,10.41 -20.57,13.53 -7.64,3.13 -15.75,4.74 -24.12,4.78 -0.11,0 -0.22,0 -0.34,0"
     fill="#2a2a2a"
     id="path3" />
  <path
     d="M 48.7,55.761517 H 0 v 15.4 h 48.7 v 15.94 l 23.65,-23.64 -23.65,-23.64 z"
     fill="#2bdd96"
     id="path4" />
</svg>
