<svg xmlns="http://www.w3.org/2000/svg" width="52" height="48" viewBox="0 0 52 48" fill="none"><defs><clipPath id="svg-710222124_1890_a"><path fill="#fff" transform="translate(1.121)" d="M0 0h50.026v48H0z"/></clipPath></defs><g clip-path="url(#svg-710222124_1890_a)"><path d="M9.374 23.984c0 .578-.106 1.117-.322 1.62a4.145 4.145 0 0 1-2.207 2.204 4.09 4.09 0 0 1-1.61.318 4.03 4.03 0 0 1-1.604-.319 4.261 4.261 0 0 1-1.314-.88 3.984 3.984 0 0 1-.881-1.31 4.095 4.095 0 0 1-.315-1.614 4.094 4.094 0 0 1 1.196-2.926 4.132 4.132 0 0 1 1.318-.885 4.078 4.078 0 0 1 1.609-.319c.574 0 1.109.106 1.609.319a4.11 4.11 0 0 1 2.518 3.796m41.777-.004c0 .578-.107 1.117-.323 1.62a4.144 4.144 0 0 1-2.207 2.204c-.5.212-1.038.318-1.609.318-.57 0-1.11-.106-1.605-.319a4.26 4.26 0 0 1-1.314-.88 3.985 3.985 0 0 1-.88-1.31A4.142 4.142 0 0 1 42.893 24c0-.583.107-1.118.315-1.613.209-.5.504-.936.881-1.314a4.131 4.131 0 0 1 1.318-.885 4.078 4.078 0 0 1 1.61-.319c.574 0 1.108.106 1.608.319.5.212.936.507 1.314.88a4.11 4.11 0 0 1 1.204 2.916" fill="#2BDD96"/><path d="M43.19 17.222a18.744 18.744 0 0 0-3.895-5.885c-1.652-1.704-3.681-3.065-6.034-4.048-2.356-.983-4.76-1.475-7.156-1.463a18.422 18.422 0 0 0-6.943 1.372 18.513 18.513 0 0 0-5.924 3.903c-1.723 1.68-3.1 3.733-4.095 6.105L3.77 14.96c1.298-3.1 3.115-5.803 5.405-8.033a24.344 24.344 0 0 1 7.777-5.114A24.222 24.222 0 0 1 26.078 0c3.175-.024 6.35.625 9.43 1.915 3.08 1.287 5.758 3.092 7.965 5.366a24.599 24.599 0 0 1 5.09 7.702l-5.373 2.239ZM26.063 48c-3.136 0-6.263-.646-9.304-1.916-3.08-1.29-5.759-3.092-7.966-5.366a24.576 24.576 0 0 1-5.09-7.702l5.378-2.239a18.743 18.743 0 0 0 3.894 5.885c1.652 1.704 3.682 3.065 6.034 4.048 2.357.984 4.76 1.475 7.156 1.463a18.42 18.42 0 0 0 6.943-1.372 18.512 18.512 0 0 0 5.924-3.903c1.723-1.68 3.1-3.733 4.096-6.105L48.5 33.04c-1.298 3.1-3.115 5.803-5.405 8.033a24.344 24.344 0 0 1-7.777 5.114 24.244 24.244 0 0 1-9.123 1.81h-.125l-.008.003Z" fill="#2A2A2A"/></g><defs><clipPath id="svg-710222124_1890_a"><path fill="#fff" transform="translate(1.121)" d="M0 0h50.026v48H0z"/></clipPath></defs></svg>