<svg xmlns="http://www.w3.org/2000/svg" width="52" height="48" viewBox="0 0 52 48" fill="none"><path fill-rule="evenodd" clip-rule="evenodd" d="M26 1.5 42 8.1v18.2c0 9.2-6.7 16.4-16 20.7-9.3-4.3-16-11.5-16-20.7V8.1L26 1.5Zm0 3.9L13.5 10.5v15.8c0 7.2 5 13 12.5 16.7 7.5-3.7 12.5-9.5 12.5-16.7V10.5L26 5.4Z" fill="#2A2A2A"/><path d="M24.6 15.8a6.6 6.6 0 1 1 0 13.2 6.6 6.6 0 0 1 0-13.2Z" stroke="#2BDD96" stroke-width="3" fill="none"/><path d="m29.6 30 4.3 4.3" stroke="#2BDD96" stroke-width="3" stroke-linecap="round"/></svg>
