<svg xmlns="http://www.w3.org/2000/svg" width="48" height="48" viewBox="0 0 48 48" fill="none"><defs><clipPath id="svg1250135312_901_a"><path fill="#fff" d="M0 0h48v48H0z"/></clipPath></defs><g clip-path="url(#svg1250135312_901_a)"><path d="M22.364 16.467a4.15 4.15 0 0 1 1.235 2.964 4.135 4.135 0 0 1-1.235 2.951c-.41.41-.868.717-1.374.916a4.25 4.25 0 0 1-1.565.311 4.07 4.07 0 0 1-2.944-1.23 4.109 4.109 0 0 1-1.235-2.948 4.136 4.136 0 0 1 1.235-2.952c.41-.41.868-.717 1.378-.92a4.123 4.123 0 0 1 1.566-.311c.534 0 1.055.1 1.565.303a4 4 0 0 1 1.374.916Z" fill="#2BDD96"/><path d="M48 43.833 35.078 30.911a19.33 19.33 0 0 0 3.772-11.484C38.85 8.716 30.134 0 19.423 0S0 8.716 0 19.423c0 10.708 8.712 19.423 19.423 19.423 4.294 0 8.266-1.402 11.484-3.772L43.83 47.996l4.17-4.17v.007ZM19.423 32.951c-7.46 0-13.528-6.067-13.528-13.528 0-7.46 6.071-13.528 13.528-13.528 7.457 0 13.528 6.067 13.528 13.528s-6.067 13.528-13.528 13.528Z" fill="#2A2A2A"/></g><defs><clipPath id="svg1250135312_901_a"><path fill="#fff" d="M0 0h48v48H0z"/></clipPath></defs></svg>