<svg xmlns="http://www.w3.org/2000/svg" width="52" height="48" viewBox="0 0 52 48" fill="none"><defs><clipPath id="svg-1075208208_1199_a"><path fill="#fff" transform="translate(9.484)" d="M0 0h32.759v48H0z"/></clipPath></defs><g clip-path="url(#svg-1075208208_1199_a)"><path d="M29.42 31.606c0 .498-.092.963-.279 1.398a3.576 3.576 0 0 1-1.903 1.9 3.522 3.522 0 0 1-1.388.274c-.496 0-.957-.091-1.385-.274a3.677 3.677 0 0 1-1.133-.76 3.436 3.436 0 0 1-.76-1.13 3.573 3.573 0 0 1-.271-1.395 3.534 3.534 0 0 1 1.031-2.524 3.519 3.519 0 0 1 2.525-1.038c.492 0 .956.091 1.387.274a3.544 3.544 0 0 1 2.172 3.274" fill="#2BDD96"/><path d="M42.244 15.242a16.148 16.148 0 0 0-1.259-5.287 16.11 16.11 0 0 0-3.512-5.204 16.665 16.665 0 0 0-5.188-3.482C30.311.425 28.166-.003 25.907-.003c-2.26 0-4.411.428-6.393 1.269a16.399 16.399 0 0 0-5.225 3.512 16.559 16.559 0 0 0-3.522 5.225 16.128 16.128 0 0 0-1.279 5.235v32.76h32.76V15.241h-.004Zm-26.859-3.264a11.533 11.533 0 0 1 2.453-3.644 11.353 11.353 0 0 1 3.638-2.44c1.36-.577 2.85-.869 4.43-.869 1.582 0 3.061.292 4.408.869a11.608 11.608 0 0 1 3.63 2.433 11.038 11.038 0 0 1 2.42 3.59c.438 1.03.709 2.147.81 3.331h-22.61c.112-1.15.387-2.246.821-3.264v-.006Zm21.834 31H14.506V20.264H37.22V42.98Z" fill="#2A2A2A"/></g><defs><clipPath id="svg-1075208208_1199_a"><path fill="#fff" transform="translate(9.484)" d="M0 0h32.759v48H0z"/></clipPath></defs></svg>