<svg xmlns="http://www.w3.org/2000/svg" width="92" height="76" viewBox="0 0 92 76" fill="none"><path d="M4.734 9.112v57.032c0 .292.237.53.53.53H45.84a.53.53 0 0 0 .53-.53V10.976a.53.53 0 0 0-.302-.477L28.588 2.17a.529.529 0 0 0-.37-.032L5.121 8.602a.53.53 0 0 0-.387.51Z" fill="#fff"/><path d="M37.776 35.492c0 1.32-.243 2.558-.736 3.697a9.541 9.541 0 0 1-2.027 3.015 9.422 9.422 0 0 1-3.004 2.019 9.302 9.302 0 0 1-3.677.727c-1.31 0-2.53-.242-3.66-.727a9.61 9.61 0 0 1-2.995-2.01 9.254 9.254 0 0 1-2.018-2.988c-.484-1.14-.718-2.369-.718-3.688s.243-2.548.718-3.688a9.104 9.104 0 0 1 2.018-2.997 9.421 9.421 0 0 1 3.004-2.019 9.304 9.304 0 0 1 3.677-.727c1.31 0 2.53.243 3.678.727a9.408 9.408 0 0 1 2.995 2.01 9.547 9.547 0 0 1 2.018 2.988c.484 1.14.736 2.36.736 3.661" fill="#2BDD96"/><path fill-rule="evenodd" clip-rule="evenodd" d="M63.594 6.993c-7.764.427-14.156 2.32-17.109 4.109a.051.051 0 0 1-.07-.018.052.052 0 0 0-.088 0 .05.05 0 0 1-.07.018c-2.953-1.79-9.345-3.682-17.109-4.109-6.99-.384-14.67.449-21.424 3.304a.524.524 0 0 0-.319.484v53.512c0 .381.395.637.747.49 15.022-6.236 29.731-2.838 37.998.958.142.065.3.065.442 0 8.267-3.796 22.975-7.194 37.998-.957a.538.538 0 0 0 .746-.49V10.78a.524.524 0 0 0-.319-.484C78.264 7.44 70.584 6.609 63.594 6.993ZM1 66.407v8.563a.53.53 0 0 0 .796.457l4.02-2.345c16.536-9.646 33.903-4.044 40.441-.062a.05.05 0 0 0 .07-.018.052.052 0 0 1 .088 0 .05.05 0 0 0 .07.018c6.538-3.983 23.905-9.584 40.44.062l4.021 2.345a.53.53 0 0 0 .796-.457V6.748a.53.53 0 0 0-.292-.473l-1.473-.74C81.456 1.254 71.691.133 63.242.597 56.84.95 50.888 2.23 46.57 3.961a.534.534 0 0 1-.399 0C41.855 2.231 35.903.95 29.5.598c-8.448-.464-18.213.656-26.734 4.937l-1.473.74A.53.53 0 0 0 1 6.749v59.659Z" fill="#2A2A2A"/><path d="m63.594 6.993.014.267-.014-.267Zm-34.446 0-.015.267.015-.267ZM5.816 73.082l.135.23-.135-.23Zm81.11 0-.135.23.134-.23Zm3.051-67.547-.12.239.12-.239ZM63.242.597l-.014-.266.014.266ZM29.5.597l.015-.266-.015.267ZM2.765 5.536l-.12-.238.12.238Zm88.181 69.892-.134.23.134-.23ZM46.485 73.02l-.14-.228.14.228Zm38.105-8.236.102-.247-.102.246Zm-38.44.957-.111.242.111-.242Zm.442 0 .111.242-.111-.242ZM1.796 75.427l.134.23-.134-.23Zm44.46-64.325-.138.228.139-.228ZM8.153 64.783l-.103-.246.103.246ZM91.45 6.276l.12-.238-.12.238ZM46.257 73.02l-.139.228.14-.228Zm.313-69.059-.099-.247.1.247Zm-.399 0-.1.248.1-.248ZM7.724 10.297l.104.246-.104-.246Zm77.293 0-.103.246.103-.246Zm-38.532.805.139.228-.139-.228Zm.139.228c2.9-1.758 9.244-3.645 16.984-4.07l-.029-.533c-7.788.427-14.228 2.326-17.232 4.146l.277.457Zm-17.49-4.07c7.74.425 14.083 2.312 16.984 4.07l.277-.456c-3.004-1.82-9.445-3.72-17.232-4.147l-.03.533ZM7.827 10.543C14.533 7.707 22.17 6.877 29.132 7.26l.03-.533c-7.02-.386-14.742.449-21.543 3.324l.208.492Zm-.156 49.459V10.78h-.534V60h.534Zm0 4.291v-4.292h-.534v4.292h.534Zm38.59 1.205c-8.311-3.816-23.1-7.235-38.213-.96l.205.492c14.933-6.199 29.561-2.823 37.785.953l.222-.485Zm38.43-.961c-15.112-6.274-29.901-2.855-38.212.961l.223.485c8.224-3.776 22.852-7.152 37.785-.953l.204-.493Zm.378-4.536v4.292h.533v-4.292h-.533Zm0-49.22V60h.533V10.78h-.533ZM63.609 7.26c6.962-.383 14.599.447 21.304 3.283l.208-.492c-6.8-2.875-14.523-3.71-21.542-3.324l.03.533ZM.733 66.407v3.908h.534v-3.908H.733Zm0 3.908v4.655h.534v-4.655H.733Zm1.197 5.343 4.02-2.346-.268-.46-4.02 2.345.268.46Zm4.02-2.346c16.423-9.58 33.681-4.015 40.168-.064l.278-.456c-6.59-4.014-24.065-9.653-40.714.06l.269.46Zm40.673-.064c6.488-3.952 23.745-9.516 40.168.064l.269-.46c-16.649-9.713-34.125-4.074-40.714-.06l.278.456Zm40.168.064 4.02 2.346.27-.462-4.021-2.345-.27.461Zm5.218 1.658v-4.655h-.534v4.655h.534Zm0-4.655v-3.908h-.534v3.908h.534Zm0-3.908v-6.405h-.534v6.405h.534Zm0-6.405V8.397h-.534v51.605h.534Zm0-51.605V6.748h-.534v1.649h.534Zm-.439-2.36-1.473-.74-.24.477 1.473.74.24-.477Zm-1.473-.74C81.52.988 71.707-.135 63.227.33l.03.533c8.418-.462 18.133.655 26.6 4.91l.24-.477ZM63.227.33C56.802.684 50.82 1.97 46.472 3.714l.199.495C50.954 2.491 56.876 1.214 63.257.864l-.03-.533ZM46.272 3.714C41.921 1.97 35.94.684 29.513.33l-.03.533c6.381.35 12.304 1.627 16.588 3.345l.198-.495ZM29.513.33C21.035-.135 11.22.988 2.645 5.297l.24.477c8.467-4.255 18.182-5.372 26.6-4.91l.029-.533ZM2.645 5.297l-1.473.74.24.477 1.473-.74-.24-.477ZM.733 6.748v1.65h.534v-1.65H.733Zm0 1.65V60h.534V8.398H.733ZM.733 60v6.406h.534v-6.405H.733Zm90.079 15.657a.796.796 0 0 0 1.197-.688h-.534c0 .202-.22.329-.394.227l-.27.46Zm-44.624-2.516a.317.317 0 0 0 .435.106l-.277-.456a.217.217 0 0 1 .297.07l-.456.28Zm.366 0a.215.215 0 0 1-.367 0l.456-.28a.319.319 0 0 0-.544 0l.455.28Zm37.934-8.112a.805.805 0 0 0 1.115-.737h-.533c0 .185-.195.32-.378.244l-.204.493ZM1.172 6.037a.796.796 0 0 0-.439.711h.534c0-.099.056-.19.144-.234l-.24-.477Zm44.867 59.946a.79.79 0 0 0 .664 0l-.223-.485a.256.256 0 0 1-.219 0l-.222.485ZM.733 74.97c0 .614.667.997 1.197.688l-.269-.461a.262.262 0 0 1-.394-.227H.733ZM46.1 10.945a.216.216 0 0 1 .296-.071l-.277.456a.318.318 0 0 0 .436-.107l-.455-.278ZM7.14 64.293c0 .578.593.954 1.115.737l-.205-.493a.271.271 0 0 1-.377-.244h-.534ZM92.01 6.748c0-.3-.17-.576-.439-.711l-.24.477a.262.262 0 0 1 .145.234h.534Zm-45.366 4.197a.319.319 0 0 0-.544 0l.455.278a.215.215 0 0 1-.367 0l.456-.278Zm-.525 62.303a.318.318 0 0 0 .436-.106l-.455-.28a.217.217 0 0 1 .297-.07l-.278.456Zm.353-69.534a.267.267 0 0 1-.2 0l-.2.495a.801.801 0 0 0 .599 0l-.199-.495ZM7.621 10.05a.791.791 0 0 0-.483.73h.534c0-.105.062-.199.156-.238l-.208-.492Zm77.982.73a.791.791 0 0 0-.482-.73l-.207.492a.26.26 0 0 1 .156.238h.533Zm-39.256.092a.216.216 0 0 1 .296.072l-.456.278c.088.144.28.202.437.107l-.277-.457Z" fill="#2A2A2A"/></svg>