<svg xmlns="http://www.w3.org/2000/svg" width="190" height="142" viewBox="0 0 190 142" fill="none"><path d="M96.627 106.384c0 1.383-.247 2.681-.75 3.876a10.02 10.02 0 0 1-2.064 3.16 9.571 9.571 0 0 1-3.06 2.117 9.242 9.242 0 0 1-3.744.762c-1.334 0-2.576-.254-3.727-.762a9.723 9.723 0 0 1-5.106-5.24c-.493-1.194-.73-2.483-.73-3.866s.246-2.672.73-3.866a9.57 9.57 0 0 1 2.055-3.142 9.586 9.586 0 0 1 3.06-2.117 9.243 9.243 0 0 1 3.745-.762c1.334 0 2.576.254 3.745.762a9.57 9.57 0 0 1 3.05 2.107 10.031 10.031 0 0 1 2.056 3.133 9.961 9.961 0 0 1 .749 3.838" fill="#2BDD96"/><path d="M105.317 114.448c-1.023 2.493-2.412 4.619-4.238 6.5a19.578 19.578 0 0 1-6.367 4.393c-2.402 1.054-4.932 1.562-7.736 1.562-2.804 0-5.344-.508-7.746-1.562-2.439-1.063-4.512-2.493-6.32-4.355-1.818-1.872-3.216-3.998-4.257-6.51-1.023-2.455-1.516-5.033-1.516-7.893 0-2.86.502-5.55 1.525-8.033 1.05-2.531 2.448-4.676 4.293-6.576a19.635 19.635 0 0 1 6.357-4.393c2.403-1.044 4.933-1.562 7.737-1.562 2.804 0 5.316.508 7.69 1.552a20.145 20.145 0 0 1 6.367 4.384c1.818 1.853 3.197 3.96 4.22 6.444 1.005 2.465 1.498 5.08 1.498 8.015 0 2.935-.493 5.55-1.498 8.015m82.215-95.7a30.424 30.424 0 0 0-6.422-9.802 30.176 30.176 0 0 0-9.453-6.528C168.049.809 164.13 0 160.011 0c-4.12 0-8.047.809-11.673 2.39a29.887 29.887 0 0 0-9.536 6.603c-2.731 2.804-4.887 6.105-6.43 9.821-1.553 3.754-2.339 7.827-2.339 12.089 0 4.261.795 8.269 2.348 12.013a32.077 32.077 0 0 0 2.237 4.374l-29.055 29.924a34.405 34.405 0 0 0-5.306-2.925c-4.092-1.807-8.54-2.72-13.208-2.72-4.668 0-9.116.913-13.226 2.71A33.23 33.23 0 0 0 69 76.875L45.206 52.37a15.94 15.94 0 0 1-.548 1.57c-.831 2.014-1.936 3.717-3.38 5.203a15.869 15.869 0 0 1-5.06 3.509c-1.9.837-3.9 1.25-6.12 1.25-2.219 0-4.31-.413-6.229-1.25a15.945 15.945 0 0 1-5.105-3.537c-1.471-1.515-2.585-3.227-3.417-5.24-.813-1.966-1.205-4.055-1.205-6.378 0-2.324.393-4.374 1.205-6.322.832-2.013 1.946-3.725 3.417-5.249a15.133 15.133 0 0 1 4.996-3.462c1.9-.828 3.936-1.232 6.22-1.232s4.32.404 6.23 1.232a15.485 15.485 0 0 1 5.05 3.49c.466.48 17.903 18.636 17.903 18.636.502-2.267.758-4.61.758-7.018 0-4.233-.785-8.288-2.32-12.022-1.525-3.707-3.68-7.009-6.412-9.821a29.66 29.66 0 0 0-9.518-6.585c-3.617-1.571-7.544-2.371-11.682-2.371-4.138 0-8.074.8-11.682 2.37a29.446 29.446 0 0 0-9.518 6.614c-2.694 2.803-4.823 6.077-6.339 9.736C.907 39.218.121 43.254.121 47.497c0 4.242.786 8.288 2.32 12.022 1.525 3.707 3.681 7.009 6.412 9.821a30.042 30.042 0 0 0 9.536 6.623c3.644 1.6 7.6 2.408 11.737 2.408 4.138 0 8.029-.818 11.664-2.417a30.01 30.01 0 0 0 4.248-2.305l12.888 13.273a36.174 36.174 0 0 0-3.152 5.974c-1.763 4.252-2.649 8.861-2.649 13.697 0 4.835.895 9.369 2.658 13.602 1.736 4.168 4.175 7.884 7.234 11.035a33.802 33.802 0 0 0 10.76 7.441c4.11 1.797 8.559 2.709 13.226 2.709 4.668 0 9.116-.912 13.226-2.709a34.01 34.01 0 0 0 10.806-7.479c3.096-3.189 5.535-6.923 7.252-11.109 1.726-4.215 2.603-8.806 2.603-13.641 0-4.835-.877-9.426-2.603-13.64a35.946 35.946 0 0 0-2.758-5.362l39.778-40.969a14.804 14.804 0 0 1-1.525-.564c-1.955-.856-3.608-1.994-5.052-3.48-1.452-1.496-2.566-3.2-3.406-5.212-.813-1.957-1.215-4.017-1.215-6.303 0-2.286.402-4.44 1.215-6.416.84-2.022 1.963-3.744 3.434-5.258a15.762 15.762 0 0 1 5.087-3.519c1.909-.837 3.937-1.241 6.184-1.241 2.247 0 4.247.404 6.138 1.232a16.051 16.051 0 0 1 5.097 3.518c1.452 1.477 2.548 3.161 3.361 5.146.804 1.966 1.197 4.064 1.197 6.406 0 2.343-.393 4.45-1.197 6.416a16.012 16.012 0 0 1-3.388 5.202c-.466.48-18.086 18.438-18.086 18.438 2.192.518 4.476.781 6.814.781 4.111 0 8.047-.809 11.673-2.39a29.886 29.886 0 0 0 9.536-6.603 30.83 30.83 0 0 0 6.403-9.803c1.526-3.725 2.302-7.77 2.302-12.031 0-4.262-.776-8.316-2.302-12.032" fill="#2A2A2A"/></svg>