<svg xmlns="http://www.w3.org/2000/svg" viewBox="0 0 80 80" width="80" height="80">
  <path d="M 73.805 11.153 C 73.811 11.81 73.681 12.462 73.424 13.066 C 72.929 14.242 71.994 15.178 70.818 15.672 C 70.229 15.923 69.592 16.049 68.914 16.049 C 68.263 16.054 67.618 15.926 67.018 15.672 C 66.44 15.426 65.914 15.073 65.467 14.632 C 65.021 14.191 64.667 13.665 64.426 13.085 C 64.174 12.48 64.048 11.831 64.056 11.176 C 64.056 10.493 64.181 9.857 64.426 9.267 C 64.667 8.685 65.023 8.158 65.471 7.716 C 65.918 7.27 66.446 6.915 67.028 6.671 C 67.631 6.418 68.279 6.29 68.933 6.295 C 70.228 6.285 71.472 6.796 72.388 7.711 C 72.831 8.156 73.186 8.68 73.432 9.257 C 73.684 9.848 73.814 10.479 73.814 11.153" fill="rgb(39, 222, 148)"/>
  <path d="M 56.584 10.981 L 45.604 0 L 45.604 7.404 L 22.978 7.404 L 22.978 14.557 L 45.604 14.557 L 45.604 21.966 Z" fill="rgb(42,42,42)"/>
  <path d="M 6.197 68.847 C 6.197 68.165 6.323 67.524 6.578 66.934 C 7.073 65.758 8.008 64.822 9.184 64.328 C 9.787 64.074 10.434 63.946 11.088 63.951 C 11.766 63.951 12.398 64.077 12.984 64.328 C 13.562 64.574 14.088 64.927 14.535 65.368 C 14.981 65.809 15.335 66.335 15.576 66.915 C 15.826 67.505 15.946 68.141 15.946 68.824 C 15.946 69.507 15.821 70.143 15.575 70.733 C 15.333 71.315 14.978 71.842 14.53 72.284 C 14.084 72.73 13.555 73.084 12.974 73.329 C 12.384 73.58 11.748 73.705 11.069 73.705 C 9.774 73.715 8.53 73.204 7.614 72.289 C 7.171 71.845 6.816 71.32 6.569 70.743 C 6.315 70.143 6.185 69.498 6.187 68.847" fill="rgb(39, 222, 148)"/>
  <path d="M 23.417 69.019 L 34.398 80 L 34.398 72.596 L 57.024 72.596 L 57.024 65.443 L 34.398 65.443 L 34.398 58.034 Z" fill="rgb(42,42,42)"/>
  <path d="M 11.153 6.157 C 11.81 6.151 12.462 6.281 13.066 6.538 C 14.242 7.033 15.178 7.969 15.672 9.144 C 15.923 9.735 16.049 10.371 16.049 11.048 C 16.054 11.699 15.926 12.344 15.672 12.944 C 15.427 13.522 15.073 14.048 14.632 14.495 C 14.191 14.942 13.665 15.296 13.085 15.536 C 12.48 15.788 11.831 15.914 11.176 15.907 C 10.521 15.912 9.872 15.786 9.267 15.536 C 8.685 15.295 8.158 14.94 7.716 14.491 C 7.27 14.045 6.915 13.516 6.671 12.935 C 6.418 12.332 6.29 11.684 6.295 11.03 C 6.285 9.735 6.796 8.49 7.711 7.575 C 8.155 7.131 8.68 6.777 9.257 6.53 C 9.857 6.275 10.502 6.145 11.153 6.148" fill="rgb(39, 222, 148)"/>
  <path d="M 10.981 23.416 L 0 34.396 L 7.404 34.396 L 7.404 57.022 L 14.557 57.022 L 14.557 34.396 L 21.966 34.396 Z" fill="rgb(42,42,42)"/>
  <path d="M 68.847 73.843 C 68.19 73.849 67.538 73.719 66.934 73.462 C 65.757 72.969 64.821 72.033 64.328 70.856 C 64.074 70.253 63.946 69.605 63.951 68.952 C 63.951 68.274 64.077 67.641 64.328 67.056 C 64.573 66.478 64.927 65.952 65.368 65.505 C 65.809 65.058 66.335 64.704 66.915 64.464 C 67.52 64.212 68.169 64.086 68.824 64.093 C 69.507 64.093 70.143 64.218 70.733 64.464 C 71.315 64.705 71.842 65.06 72.284 65.509 C 72.73 65.955 73.085 66.484 73.329 67.065 C 73.58 67.656 73.705 68.292 73.705 68.97 C 73.715 70.265 73.204 71.51 72.289 72.425 C 71.845 72.869 71.32 73.223 70.743 73.47 C 70.143 73.725 69.498 73.855 68.847 73.852" fill="rgb(39, 222, 148)"/>
  <path d="M 69.019 56.584 L 80 45.604 L 72.596 45.604 L 72.596 22.978 L 65.443 22.978 L 65.443 45.604 L 58.034 45.604 Z" fill="rgb(42,42,42)"/>
</svg>
