<svg xmlns="http://www.w3.org/2000/svg" xmlns:xlink="http://www.w3.org/1999/xlink" viewBox="0 0 86 80" width="86" height="80">
  <path d="M 19.82 47.688 C 18.182 47.688 16.704 47.976 15.306 48.572 C 12.5 49.751 10.268 51.983 9.089 54.79 C 8.488 56.194 8.2 57.685 8.2 59.34 C 8.2 60.995 8.494 62.428 9.089 63.817 C 9.671 65.195 10.515 66.448 11.573 67.506 C 12.631 68.565 13.838 69.369 15.257 69.976 C 16.662 70.571 18.141 70.859 19.778 70.859 C 21.417 70.859 22.894 70.571 24.293 69.976 C 25.681 69.394 26.941 68.548 28.006 67.485 C 29.064 66.429 29.904 65.176 30.478 63.795 C 31.068 62.396 31.356 60.91 31.356 59.25 C 31.356 57.589 31.068 56.104 30.478 54.704 C 29.909 53.333 29.072 52.09 28.016 51.048 C 26.948 49.989 25.688 49.143 24.304 48.557 C 22.922 47.966 21.453 47.678 19.815 47.678 M 19.773 79.066 C 17.05 79.066 14.455 78.55 12.056 77.528 C 9.711 76.541 7.578 75.11 5.775 73.312 C 3.983 71.516 2.55 69.393 1.553 67.058 C 0.521 64.658 0 62.066 0 59.346 C 0 56.626 0.521 53.991 1.548 51.579 C 3.561 46.823 7.345 43.039 12.099 41.03 C 14.492 40.013 17.093 39.497 19.815 39.497 C 22.538 39.497 25.133 40.013 27.521 41.04 C 29.853 42.031 31.975 43.457 33.776 45.241 C 35.59 47.038 37.032 49.175 38.019 51.531 C 39.031 53.921 39.541 56.524 39.541 59.266 C 39.541 62.007 39.03 64.61 38.019 66.999 C 37.033 69.353 35.597 71.492 33.793 73.296 C 31.984 75.104 29.844 76.544 27.49 77.539 C 25.092 78.556 22.497 79.072 19.774 79.072" fill="rgb(42,42,42)"/>
  <path d="M 25.356 59.143 C 25.363 59.896 25.215 60.643 24.921 61.336 C 24.354 62.683 23.283 63.754 21.937 64.321 C 21.247 64.612 20.505 64.759 19.757 64.753 C 19.012 64.76 18.274 64.613 17.588 64.322 C 16.925 64.041 16.323 63.636 15.811 63.13 C 15.3 62.625 14.895 62.022 14.62 61.358 C 14.332 60.665 14.187 59.921 14.195 59.171 C 14.195 58.388 14.338 57.659 14.62 56.982 C 14.896 56.316 15.303 55.712 15.816 55.205 C 16.327 54.694 16.932 54.287 17.598 54.007 C 18.288 53.717 19.029 53.57 19.778 53.576 C 21.261 53.565 22.686 54.15 23.734 55.199 C 24.24 55.705 24.638 56.296 24.931 56.971 C 25.223 57.658 25.372 58.397 25.367 59.143" fill="rgb(43,221,150)"/>
  <path d="M 66.281 47.688 C 64.643 47.688 63.164 47.976 61.765 48.572 C 58.96 49.751 56.728 51.983 55.548 54.79 C 54.948 56.194 54.661 57.685 54.661 59.34 C 54.661 60.995 54.954 62.428 55.549 63.817 C 56.132 65.195 56.975 66.448 58.033 67.506 C 59.091 68.565 60.298 69.369 61.718 69.976 C 63.122 70.571 64.601 70.859 66.238 70.859 C 67.877 70.859 69.354 70.571 70.754 69.976 C 72.141 69.394 73.402 68.548 74.466 67.485 C 75.524 66.429 76.364 65.176 76.939 63.795 C 77.528 62.396 77.816 60.91 77.816 59.25 C 77.816 57.589 77.528 56.104 76.939 54.704 C 76.369 53.333 75.532 52.09 74.476 51.048 C 73.409 49.989 72.149 49.143 70.764 48.557 C 69.382 47.966 67.914 47.678 66.276 47.678 M 66.233 79.066 C 63.51 79.066 60.915 78.55 58.516 77.528 C 56.171 76.541 54.038 75.11 52.235 73.312 C 50.443 71.516 49.01 69.393 48.013 67.058 C 46.981 64.658 46.46 62.066 46.46 59.346 C 46.46 56.626 46.981 53.991 48.008 51.579 C 50.021 46.823 53.805 43.039 58.559 41.03 C 60.952 40.013 63.553 39.497 66.276 39.497 C 68.998 39.497 71.593 40.013 73.981 41.04 C 76.313 42.031 78.435 43.457 80.236 45.241 C 82.05 47.038 83.492 49.175 84.479 51.531 C 85.49 53.921 86.001 56.524 86.001 59.266 C 86.001 62.007 85.49 64.61 84.479 66.999 C 83.493 69.353 82.057 71.492 80.252 73.296 C 78.444 75.104 76.303 76.544 73.949 77.539 C 71.551 78.556 68.956 79.072 66.233 79.072" fill="rgb(42,42,42)"/>
  <path d="M 71.816 59.143 C 71.823 59.896 71.675 60.643 71.381 61.336 C 70.816 62.685 69.744 63.757 68.396 64.322 C 67.707 64.612 66.965 64.759 66.217 64.753 C 65.472 64.76 64.733 64.613 64.047 64.322 C 63.385 64.04 62.783 63.636 62.271 63.13 C 61.76 62.625 61.355 62.022 61.08 61.358 C 60.792 60.665 60.647 59.921 60.655 59.171 C 60.655 58.388 60.798 57.659 61.08 56.982 C 61.356 56.316 61.763 55.712 62.276 55.205 C 62.787 54.694 63.392 54.287 64.058 54.007 C 64.748 53.717 65.49 53.57 66.238 53.576 C 67.721 53.565 69.146 54.15 70.194 55.199 C 70.7 55.705 71.099 56.296 71.391 56.971 C 71.678 57.643 71.826 58.367 71.826 59.143" fill="rgb(43,221,150)"/>
  <path d="M 43.093 8.192 C 41.455 8.192 39.977 8.479 38.579 9.075 C 35.773 10.254 33.541 12.486 32.361 15.293 C 31.76 16.698 31.473 18.188 31.473 19.844 C 31.473 21.499 31.766 22.931 32.361 24.32 C 32.944 25.698 33.787 26.951 34.845 28.009 C 35.903 29.068 37.111 29.872 38.53 30.479 C 39.934 31.074 41.414 31.362 43.051 31.362 C 44.69 31.362 46.167 31.074 47.566 30.479 C 48.953 29.897 50.214 29.051 51.278 27.988 C 52.336 26.933 53.177 25.679 53.751 24.299 C 54.341 22.899 54.628 21.414 54.628 19.753 C 54.628 18.092 54.341 16.608 53.751 15.207 C 53.182 13.836 52.344 12.594 51.288 11.551 C 50.221 10.492 48.961 9.646 47.576 9.06 C 46.194 8.469 44.726 8.181 43.088 8.181 M 43.046 39.57 C 40.323 39.57 37.728 39.053 35.329 38.031 C 32.983 37.045 30.85 35.613 29.048 33.816 C 27.255 32.019 25.822 29.896 24.826 27.562 C 23.794 25.162 23.273 22.569 23.273 19.849 C 23.273 17.129 23.794 14.494 24.821 12.082 C 26.833 7.327 30.618 3.543 35.371 1.534 C 37.764 0.516 40.365 0 43.088 0 C 45.811 0 48.406 0.516 50.794 1.543 C 53.125 2.535 55.248 3.96 57.048 5.744 C 58.862 7.541 60.304 9.679 61.292 12.034 C 62.302 14.424 62.813 17.027 62.813 19.769 C 62.813 22.51 62.302 25.113 61.292 27.503 C 60.305 29.857 58.869 31.996 57.065 33.801 C 55.256 35.608 53.116 37.048 50.761 38.043 C 48.363 39.059 45.768 39.576 43.046 39.576" fill="rgb(42,42,42)"/>
  <path d="M 48.628 19.647 C 48.636 20.4 48.488 21.146 48.193 21.839 C 47.627 23.186 46.557 24.258 45.211 24.825 C 44.52 25.116 43.778 25.262 43.029 25.257 C 42.284 25.263 41.545 25.116 40.859 24.825 C 40.197 24.544 39.595 24.139 39.083 23.633 C 38.572 23.128 38.167 22.526 37.893 21.861 C 37.604 21.169 37.46 20.424 37.468 19.674 C 37.468 18.891 37.61 18.162 37.893 17.487 C 38.169 16.82 38.575 16.215 39.089 15.708 C 39.6 15.198 40.205 14.791 40.87 14.51 C 41.56 14.22 42.302 14.073 43.051 14.079 C 44.533 14.068 45.958 14.653 47.007 15.702 C 47.512 16.209 47.911 16.799 48.204 17.474 C 48.491 18.146 48.639 18.87 48.639 19.647" fill="rgb(43,221,150)"/>
</svg>
