<svg xmlns="http://www.w3.org/2000/svg" xmlns:xlink="http://www.w3.org/1999/xlink" viewBox="0 0 56 80" width="56" height="80">
  <path d="M 0.102 52.152 C 0.102 48.31 0.827 44.658 2.263 41.289 C 3.686 37.943 5.689 34.964 8.211 32.447 L 12.995 37.216 C 11.089 39.117 9.573 41.377 8.488 43.926 C 7.411 46.457 6.862 49.226 6.862 52.151 C 6.862 55.078 7.407 57.846 8.484 60.377 C 9.546 62.897 11.089 65.188 13.025 67.123 C 14.955 69.046 17.241 70.576 19.756 71.629 C 22.282 72.693 25.072 73.237 28.037 73.237 C 31.002 73.237 33.791 72.697 36.317 71.633 C 38.82 70.587 41.092 69.06 43.004 67.14 C 44.923 65.202 46.456 62.919 47.524 60.412 C 48.6 57.907 49.145 55.152 49.145 52.226 C 49.145 49.301 48.6 46.527 47.52 44.001 C 46.457 41.481 44.914 39.19 42.977 37.256 L 47.761 32.486 C 50.315 35.032 52.348 38.049 53.749 41.368 C 55.181 44.732 55.911 48.385 55.911 52.227 C 55.911 56.067 55.181 59.716 53.744 63.062 C 52.345 66.351 50.331 69.344 47.81 71.883 C 45.277 74.434 42.264 76.461 38.944 77.848 C 35.584 79.263 31.912 79.986 28.033 79.986 C 24.154 79.986 20.481 79.267 17.12 77.848 C 13.798 76.458 10.779 74.437 8.233 71.896 C 5.682 69.35 3.65 66.335 2.25 63.018 C 0.817 59.65 0.089 55.998 0.089 52.16" fill="rgb(42,42,42)"/>
  <path d="M 28.146 42.538 L 38.536 32.183 L 31.529 32.183 L 31.529 8.751 L 24.764 8.751 L 24.764 32.184 L 17.761 32.184 Z" fill="rgb(43,221,150)"/>
  <path d="M 28.03 0 L 17.641 10.354 L 38.414 10.354 Z M 28.033 56.816 C 27.412 56.822 26.795 56.699 26.223 56.457 C 25.111 55.99 24.226 55.108 23.758 53.999 C 23.519 53.431 23.398 52.82 23.403 52.204 C 23.398 51.59 23.519 50.982 23.758 50.417 C 23.991 49.872 24.325 49.375 24.743 48.954 C 25.161 48.533 25.658 48.198 26.205 47.968 C 26.778 47.733 27.392 47.614 28.011 47.618 C 28.657 47.618 29.259 47.736 29.816 47.968 C 30.367 48.196 30.866 48.531 31.284 48.954 C 31.705 49.375 32.041 49.873 32.272 50.421 C 32.509 50.977 32.628 51.577 32.628 52.217 C 32.637 53.438 32.154 54.611 31.288 55.475 C 30.87 55.892 30.383 56.22 29.825 56.461 C 29.258 56.701 28.648 56.823 28.033 56.82" fill="rgb(43,221,150)"/>
</svg>
