<svg xmlns="http://www.w3.org/2000/svg" width="1600" height="900" viewBox="0 0 1600 900">
<defs>
<radialGradient id="bgg" cx="42%" cy="40%" r="80%">
  <stop offset="0%" stop-color="#202020"/>
  <stop offset="60%" stop-color="#1A1A1A"/>
  <stop offset="100%" stop-color="#121212"/>
</radialGradient>
<filter id="glow" x="-60%" y="-60%" width="220%" height="220%"><feGaussianBlur stdDeviation="6" result="b"/><feMerge><feMergeNode in="b"/><feMergeNode in="SourceGraphic"/></feMerge></filter>
<filter id="softglow" x="-80%" y="-80%" width="260%" height="260%"><feGaussianBlur stdDeviation="14"/></filter>
</defs>
<rect width="1600" height="900" fill="url(#bgg)"/>
<rect x="-40" y="120" width="520" height="300" rx="28" fill="#2A2A2A" fill-opacity="0.22" transform="rotate(-8 220 270)"/>
<rect x="1080" y="470" width="640" height="360" rx="32" fill="#2A2A2A" fill-opacity="0.18" transform="rotate(6 1380 650)"/>
<circle cx="430" cy="340" r="86" fill="#2BDD96" fill-opacity="0.05" filter="url(#softglow)"/>
<circle cx="760" cy="560" r="99" fill="#2BDD96" fill-opacity="0.05" filter="url(#softglow)"/>
<circle cx="1140" cy="330" r="90" fill="#2BDD96" fill-opacity="0.05" filter="url(#softglow)"/>
<circle cx="1010" cy="660" r="63" fill="#2BDD96" fill-opacity="0.05" filter="url(#softglow)"/>
<circle cx="300" cy="640" r="63" fill="#2BDD96" fill-opacity="0.05" filter="url(#softglow)"/>
<line x1="430.0" y1="340.0" x2="407.7" y2="317.3" stroke="#1f9e6c" stroke-width="1.4" stroke-opacity="0.45" stroke-linecap="round"/>
<line x1="430.0" y1="340.0" x2="443.2" y2="406.0" stroke="#1f9e6c" stroke-width="1.4" stroke-opacity="0.45" stroke-linecap="round"/>
<line x1="430.0" y1="340.0" x2="460.1" y2="319.4" stroke="#1f9e6c" stroke-width="1.4" stroke-opacity="0.45" stroke-linecap="round"/>
<line x1="430.0" y1="340.0" x2="475.9" y2="347.4" stroke="#1f9e6c" stroke-width="1.4" stroke-opacity="0.45" stroke-linecap="round"/>
<line x1="430.0" y1="340.0" x2="474.9" y2="346.4" stroke="#1f9e6c" stroke-width="1.4" stroke-opacity="0.45" stroke-linecap="round"/>
<line x1="407.7" y1="317.3" x2="430.0" y2="340.0" stroke="#1f9e6c" stroke-width="1.4" stroke-opacity="0.45" stroke-linecap="round"/>
<line x1="443.2" y1="406.0" x2="460.1" y2="319.4" stroke="#1f9e6c" stroke-width="1.4" stroke-opacity="0.45" stroke-linecap="round"/>
<line x1="760.0" y1="560.0" x2="707.9" y2="547.1" stroke="#1f9e6c" stroke-width="1.4" stroke-opacity="0.45" stroke-linecap="round"/>
<line x1="760.0" y1="560.0" x2="774.2" y2="529.2" stroke="#1f9e6c" stroke-width="1.4" stroke-opacity="0.45" stroke-linecap="round"/>
<line x1="760.0" y1="560.0" x2="739.9" y2="509.4" stroke="#1f9e6c" stroke-width="1.4" stroke-opacity="0.45" stroke-linecap="round"/>
<line x1="760.0" y1="560.0" x2="820.3" y2="545.9" stroke="#1f9e6c" stroke-width="1.4" stroke-opacity="0.45" stroke-linecap="round"/>
<line x1="760.0" y1="560.0" x2="841.4" y2="608.1" stroke="#1f9e6c" stroke-width="1.4" stroke-opacity="0.45" stroke-linecap="round"/>
<line x1="760.0" y1="560.0" x2="791.9" y2="487.8" stroke="#1f9e6c" stroke-width="1.4" stroke-opacity="0.45" stroke-linecap="round"/>
<line x1="774.2" y1="529.2" x2="760.0" y2="560.0" stroke="#1f9e6c" stroke-width="1.4" stroke-opacity="0.45" stroke-linecap="round"/>
<line x1="707.9" y1="547.1" x2="820.3" y2="545.9" stroke="#1f9e6c" stroke-width="1.4" stroke-opacity="0.45" stroke-linecap="round"/>
<line x1="1140.0" y1="330.0" x2="1198.8" y2="321.5" stroke="#1f9e6c" stroke-width="1.4" stroke-opacity="0.45" stroke-linecap="round"/>
<line x1="1140.0" y1="330.0" x2="1176.0" y2="273.9" stroke="#1f9e6c" stroke-width="1.4" stroke-opacity="0.45" stroke-linecap="round"/>
<line x1="1140.0" y1="330.0" x2="1068.6" y2="297.9" stroke="#1f9e6c" stroke-width="1.4" stroke-opacity="0.45" stroke-linecap="round"/>
<line x1="1140.0" y1="330.0" x2="1147.4" y2="375.3" stroke="#1f9e6c" stroke-width="1.4" stroke-opacity="0.45" stroke-linecap="round"/>
<line x1="1140.0" y1="330.0" x2="1144.5" y2="365.1" stroke="#1f9e6c" stroke-width="1.4" stroke-opacity="0.45" stroke-linecap="round"/>
<line x1="1144.5" y1="365.1" x2="1176.0" y2="273.9" stroke="#1f9e6c" stroke-width="1.4" stroke-opacity="0.45" stroke-linecap="round"/>
<line x1="1198.8" y1="321.5" x2="1068.6" y2="297.9" stroke="#1f9e6c" stroke-width="1.4" stroke-opacity="0.45" stroke-linecap="round"/>
<line x1="1010.0" y1="660.0" x2="983.0" y2="633.7" stroke="#1f9e6c" stroke-width="1.4" stroke-opacity="0.45" stroke-linecap="round"/>
<line x1="1010.0" y1="660.0" x2="1019.2" y2="690.1" stroke="#1f9e6c" stroke-width="1.4" stroke-opacity="0.45" stroke-linecap="round"/>
<line x1="1010.0" y1="660.0" x2="978.8" y2="624.4" stroke="#1f9e6c" stroke-width="1.4" stroke-opacity="0.45" stroke-linecap="round"/>
<line x1="978.8" y1="624.4" x2="1019.2" y2="690.1" stroke="#1f9e6c" stroke-width="1.4" stroke-opacity="0.45" stroke-linecap="round"/>
<line x1="978.8" y1="624.4" x2="1010.0" y2="660.0" stroke="#1f9e6c" stroke-width="1.4" stroke-opacity="0.45" stroke-linecap="round"/>
<line x1="300.0" y1="640.0" x2="295.8" y2="613.1" stroke="#1f9e6c" stroke-width="1.4" stroke-opacity="0.45" stroke-linecap="round"/>
<line x1="300.0" y1="640.0" x2="353.5" y2="637.0" stroke="#1f9e6c" stroke-width="1.4" stroke-opacity="0.45" stroke-linecap="round"/>
<line x1="300.0" y1="640.0" x2="274.9" y2="591.0" stroke="#1f9e6c" stroke-width="1.4" stroke-opacity="0.45" stroke-linecap="round"/>
<line x1="353.5" y1="637.0" x2="300.0" y2="640.0" stroke="#1f9e6c" stroke-width="1.4" stroke-opacity="0.45" stroke-linecap="round"/>
<line x1="295.8" y1="613.1" x2="353.5" y2="637.0" stroke="#1f9e6c" stroke-width="1.4" stroke-opacity="0.45" stroke-linecap="round"/>
<g filter="url(#glow)">
<line x1="430.0" y1="340.0" x2="760.0" y2="560.0" stroke="#2BDD96" stroke-width="2.6" stroke-opacity="0.9" stroke-linecap="round"/>
<line x1="760.0" y1="560.0" x2="1140.0" y2="330.0" stroke="#2BDD96" stroke-width="2.6" stroke-opacity="0.9" stroke-linecap="round"/>
<line x1="760.0" y1="560.0" x2="1010.0" y2="660.0" stroke="#2BDD96" stroke-width="2.6" stroke-opacity="0.9" stroke-linecap="round"/>
<line x1="430.0" y1="340.0" x2="300.0" y2="640.0" stroke="#2BDD96" stroke-width="2.6" stroke-opacity="0.9" stroke-linecap="round"/>
<line x1="1140.0" y1="330.0" x2="1010.0" y2="660.0" stroke="#2BDD96" stroke-width="2.6" stroke-opacity="0.9" stroke-linecap="round"/>
</g>
<g filter="url(#glow)">
<circle cx="430.0" cy="340.0" r="11" fill="#2BDD96"/>
<circle cx="430.0" cy="340.0" r="17" fill="none" stroke="#2BDD96" stroke-width="1.6" stroke-opacity="0.5"/>
<circle cx="407.7" cy="317.3" r="5.5" fill="#2BDD96" fill-opacity="0.85"/>
<circle cx="443.2" cy="406.0" r="6.9" fill="#2BDD96" fill-opacity="0.85"/>
<circle cx="460.1" cy="319.4" r="6.0" fill="#2BDD96" fill-opacity="0.85"/>
<circle cx="475.9" cy="347.4" r="6.3" fill="#2BDD96" fill-opacity="0.85"/>
<circle cx="474.9" cy="346.4" r="6.8" fill="#2BDD96" fill-opacity="0.85"/>
<circle cx="760.0" cy="560.0" r="11" fill="#2BDD96"/>
<circle cx="760.0" cy="560.0" r="17" fill="none" stroke="#2BDD96" stroke-width="1.6" stroke-opacity="0.5"/>
<circle cx="707.9" cy="547.1" r="6.6" fill="#2BDD96" fill-opacity="0.85"/>
<circle cx="774.2" cy="529.2" r="7.3" fill="#2BDD96" fill-opacity="0.85"/>
<circle cx="739.9" cy="509.4" r="5.0" fill="#2BDD96" fill-opacity="0.85"/>
<circle cx="820.3" cy="545.9" r="4.8" fill="#2BDD96" fill-opacity="0.85"/>
<circle cx="841.4" cy="608.1" r="6.6" fill="#2BDD96" fill-opacity="0.85"/>
<circle cx="791.9" cy="487.8" r="6.4" fill="#2BDD96" fill-opacity="0.85"/>
<circle cx="1140.0" cy="330.0" r="11" fill="#2BDD96"/>
<circle cx="1140.0" cy="330.0" r="17" fill="none" stroke="#2BDD96" stroke-width="1.6" stroke-opacity="0.5"/>
<circle cx="1198.8" cy="321.5" r="6.4" fill="#2BDD96" fill-opacity="0.85"/>
<circle cx="1176.0" cy="273.9" r="7.5" fill="#2BDD96" fill-opacity="0.85"/>
<circle cx="1068.6" cy="297.9" r="4.7" fill="#2BDD96" fill-opacity="0.85"/>
<circle cx="1147.4" cy="375.3" r="4.8" fill="#2BDD96" fill-opacity="0.85"/>
<circle cx="1144.5" cy="365.1" r="5.5" fill="#2BDD96" fill-opacity="0.85"/>
<circle cx="1010.0" cy="660.0" r="11" fill="#2BDD96"/>
<circle cx="1010.0" cy="660.0" r="17" fill="none" stroke="#2BDD96" stroke-width="1.6" stroke-opacity="0.5"/>
<circle cx="983.0" cy="633.7" r="5.8" fill="#2BDD96" fill-opacity="0.85"/>
<circle cx="1019.2" cy="690.1" r="7.8" fill="#2BDD96" fill-opacity="0.85"/>
<circle cx="978.8" cy="624.4" r="5.1" fill="#2BDD96" fill-opacity="0.85"/>
<circle cx="300.0" cy="640.0" r="11" fill="#2BDD96"/>
<circle cx="300.0" cy="640.0" r="17" fill="none" stroke="#2BDD96" stroke-width="1.6" stroke-opacity="0.5"/>
<circle cx="295.8" cy="613.1" r="5.8" fill="#2BDD96" fill-opacity="0.85"/>
<circle cx="353.5" cy="637.0" r="6.4" fill="#2BDD96" fill-opacity="0.85"/>
<circle cx="274.9" cy="591.0" r="7.2" fill="#2BDD96" fill-opacity="0.85"/>
</g>
</svg>