<svg xmlns="http://www.w3.org/2000/svg" width="468" height="424" viewBox="0 0 468 424" fill="none"><path d="M199.226 243.722c4.899-2.828 6.579-9.092 3.75-13.993-2.829-4.9-9.095-6.578-13.993-3.749-4.899 2.828-6.578 9.094-3.75 13.993 2.829 4.899 9.095 6.578 13.993 3.749Z" fill="#2BDD96"/><path d="M219.405 220.245c8.068 13.975 3.278 31.839-10.692 39.905-13.97 8.066-31.84 3.278-39.905-10.692-8.066-13.971-3.278-31.84 10.692-39.905 13.971-8.066 31.837-3.282 39.905 10.692Z" stroke="#2A2A2A" stroke-width="3.038"/><path d="M430.336 159.189c4.899-2.828 6.578-9.093 3.749-13.993s-9.094-6.578-13.993-3.749c-4.899 2.828-6.578 9.094-3.749 13.993 2.828 4.899 9.094 6.577 13.993 3.749Z" fill="#2BDD96"/><path d="M450.513 135.712c8.068 13.975 3.277 31.839-10.693 39.905-13.97 8.066-31.839 3.278-39.905-10.693-8.065-13.97-3.277-31.839 10.693-39.904 13.97-8.066 31.836-3.283 39.905 10.692Z" stroke="#2A2A2A" stroke-width="3.038"/><path d="M328.668 359.159c4.899-2.828 6.578-9.092 3.749-13.993-2.829-4.9-9.094-6.578-13.993-3.749-4.899 2.828-6.578 9.094-3.749 13.993 2.828 4.899 9.094 6.578 13.993 3.749Z" fill="#2BDD96"/><path d="M348.847 335.682c8.068 13.975 3.277 31.839-10.693 39.905-13.97 8.066-31.839 3.278-39.905-10.692-8.065-13.971-3.277-31.84 10.693-39.905 13.97-8.066 31.836-3.282 39.905 10.692Z" stroke="#2A2A2A" stroke-width="3.038"/><path d="M47.1 50.851c4.898-2.828 6.578-9.093 3.749-13.993-2.83-4.9-9.094-6.578-13.993-3.75-4.9 2.829-6.578 9.095-3.75 13.994C35.935 52 42.2 53.68 47.1 50.852Z" fill="#2BDD96"/><path d="M67.278 27.374c8.069 13.974 3.278 31.839-10.692 39.904-13.97 8.066-31.84 3.278-39.905-10.692-8.066-13.97-3.278-31.84 10.692-39.905C41.343 8.615 59.21 13.4 67.278 27.374Z" stroke="#2A2A2A" stroke-width="3.038"/><path d="M61.277 390.04c4.899-2.828 6.579-9.093 3.75-13.993-2.83-4.9-9.095-6.578-13.994-3.749-4.898 2.828-6.577 9.094-3.749 13.993 2.828 4.899 9.094 6.578 13.993 3.749Z" fill="#2BDD96"/><path d="M81.454 366.563c8.068 13.975 3.278 31.839-10.692 39.905-13.97 8.066-31.84 3.278-39.905-10.693-8.066-13.97-3.278-31.839 10.692-39.904 13.97-8.066 31.837-3.283 39.905 10.692Zm306.683-208.955s-88.721 14.521-159.014 60.066" stroke="#2A2A2A" stroke-width="3.038"/><path d="m242.331 223.132-15.798-3.43-.131-.204-.313-.486-.128-.203 3.401-15.803 4.691-3.022-3.725 16.639 16.694 3.487-4.691 3.022Z" fill="#2A2A2A"/><path d="M197.716 273.344s8.323 64.187 83.652 74.641" stroke="#2A2A2A" stroke-width="3.038"/><path d="m275.673 335.113 10.651 12.161-.015.242-.038.577-.018.239-12.141 10.673-5.568-.365 12.898-11.152-11.337-12.74 5.568.365Z" fill="#2A2A2A"/><path d="M64.897 346.349s24.404-71.914 90.285-91.095" stroke="#2A2A2A" stroke-width="3.038"/><path d="m143.93 246.841 14.682 6.764.085.227.2.543.082.226-6.737 14.694-5.233 1.937 7.233-15.441-15.545-7.013 5.233-1.937Z" fill="#2A2A2A"/><path d="M155.83 200.377S88.071 151.11 63.055 80.494" stroke="#2A2A2A" stroke-width="3.038"/><path d="m54.896 91.69 5.281-15.279.218-.107.52-.252.217-.104 15.287 5.253 2.444 5.016-16.08-5.672-5.443 16.161-2.444-5.016Z" fill="#2A2A2A"/></svg>